<?xml version="1.0" encoding="UTF-8"?>
<svg version="1.1" xmlns="http://www.w3.org/2000/svg" width="180" height="180">
<path d="M0 0 C59.4 0 118.8 0 180 0 C180 59.4 180 118.8 180 180 C120.6 180 61.2 180 0 180 C0 120.6 0 61.2 0 0 Z " fill="#000000" transform="translate(0,0)"/>
<path d="M0 0 C1.24910156 0.00737183 1.24910156 0.00737183 2.5234375 0.01489258 C14.18855692 0.23327759 24.65464341 2.76036589 34.9375 8.3125 C36.27554688 9.03373047 36.27554688 9.03373047 37.640625 9.76953125 C52.56744253 18.53370554 63.38589045 31.94039222 68.9375 48.3125 C69.2365625 49.08207031 69.535625 49.85164063 69.84375 50.64453125 C75.40000468 66.97889108 72.52693736 85.44740156 65.125 100.5625 C62.22124908 106.22484728 59.21360318 111.55896782 54.9375 116.3125 C54.28265625 117.04726562 53.6278125 117.78203125 52.953125 118.5390625 C41.0726446 131.13574208 24.31796516 139.82722134 6.89453125 140.59765625 C-2.40337953 140.83035334 -11.32474174 140.85598828 -20.0625 137.3125 C-20.95710938 136.96058594 -21.85171875 136.60867187 -22.7734375 136.24609375 C-40.80901294 128.59234115 -55.45498109 115.56543966 -63.0625 97.3125 C-64.53904615 93.01664256 -65.85233607 88.69044598 -67.0625 84.3125 C-67.23974609 83.68786865 -67.41699219 83.0632373 -67.59960938 82.41967773 C-69.91626047 71.87378342 -69.09782123 58.26305115 -65.0625 48.3125 C-64.71058594 47.41789062 -64.35867187 46.52328125 -63.99609375 45.6015625 C-56.63453488 28.25452279 -44.24560092 13.14159862 -26.5078125 5.8515625 C-23.04548826 4.58521558 -19.58313563 3.40553455 -16.0625 2.3125 C-14.95519531 1.94382812 -13.84789062 1.57515625 -12.70703125 1.1953125 C-8.38414623 0.14818279 -4.42971032 -0.03106199 0 0 Z " fill="#E5AA3B" transform="translate(88.0625,19.6875)"/>
<path d="M0 0 C2.48487347 2.48487347 2.35175825 3.36769928 2.4375 6.8125 C2.15237385 20.44509407 -5.75535634 32.91413475 -15.0625 42.375 C-25.13196656 52 -25.13196656 52 -28 52 C-27.938125 53.093125 -27.87625 54.18625 -27.8125 55.3125 C-28.03517897 65.92686446 -30.98896771 71.70360376 -38.4375 79.1875 C-39.106604 79.85982666 -39.77570801 80.53215332 -40.46508789 81.22485352 C-45.46340103 86 -45.46340103 86 -50 86 C-50 80.06 -50 74.12 -50 68 C-51.32 67.67 -52.64 67.34 -54 67 C-56.578125 64.8203125 -56.578125 64.8203125 -59.25 62.125 C-60.14203125 61.24070313 -61.0340625 60.35640625 -61.953125 59.4453125 C-64 57 -64 57 -64 54 C-70.27 54 -76.54 54 -83 54 C-81.82129494 48.1064747 -79.90539489 46.09616478 -75.9375 41.875 C-75.11475586 40.94494141 -75.11475586 40.94494141 -74.27539062 39.99609375 C-69.39258657 34.73420757 -64.76512123 32.32383497 -57.59375 31.70703125 C-56.5728125 31.74183594 -55.551875 31.77664062 -54.5 31.8125 C-53.4584375 31.83957031 -52.416875 31.86664063 -51.34375 31.89453125 C-50.5703125 31.92933594 -49.796875 31.96414062 -49 32 C-48.78730469 31.30777344 -48.57460937 30.61554688 -48.35546875 29.90234375 C-46.59607306 26.13510746 -44.16188599 23.55131479 -41.3125 20.5625 C-40.76722656 19.98556396 -40.22195312 19.40862793 -39.66015625 18.81420898 C-38.11850987 17.19754499 -36.56369124 15.59531886 -35 14 C-34.36449219 13.3503125 -33.72898438 12.700625 -33.07421875 12.03125 C-24.23876289 3.78774775 -12.00756077 -0.82810764 0 0 Z " fill="#040301" transform="translate(129,44)"/>
<path d="M0 0 C4.35596502 0.68328863 6.20086655 2.30499677 9.1875 5.5 C10.375 8.4375 10.375 8.4375 10.1875 11.5 C7.49210051 15.54309923 4.77266461 18.66593416 0.1875 20.5 C-3.16226636 20.7319069 -6.46116196 20.67570122 -9.8125 20.5 C-9.23828936 14.18368299 -8.55682561 6.83078423 -4.38671875 1.76953125 C-2.8125 0.5 -2.8125 0.5 0 0 Z " fill="#090602" transform="translate(61.8125,104.5)"/>
<path d="M0 0 C2.77389443 2.02419323 3.85519403 3.15185077 4.4375 6.5625 C4 9 4 9 2.875 10.8125 C0.12844028 12.55198782 -1.81846974 12.39769128 -5 12 C-6.875 10.875 -6.875 10.875 -8 9 C-8.39769128 5.81846974 -8.55198782 3.87155972 -6.8125 1.125 C-4.30201593 -0.43323149 -2.90697947 -0.49631357 0 0 Z " fill="#E3AF42" transform="translate(109,62)"/>
<path d="M0 0 C1.4540625 0.0309375 1.4540625 0.0309375 2.9375 0.0625 C3.5625 3.4375 3.5625 3.4375 3.9375 7.0625 C3.2775 7.7225 2.6175 8.3825 1.9375 9.0625 C-1.35964793 8.73278521 -2.6851839 8.4398161 -5.0625 6.0625 C-4.33395709 0.0884481 -4.33395709 0.0884481 0 0 Z " fill="#D9A33A" transform="translate(95.0625,76.9375)"/>
<path d="M0 0 C1.65 0.33 3.3 0.66 5 1 C4.6875 2.9375 4.6875 2.9375 4 5 C3.01 5.33 2.02 5.66 1 6 C0.34 5.67 -0.32 5.34 -1 5 C-0.67 3.35 -0.34 1.7 0 0 Z " fill="#D29934" transform="translate(83,89)"/>
</svg>
