<svg width="20" height="20" viewBox="0 0 20 20" fill="none" xmlns="http://www.w3.org/2000/svg">
<path d="M12.5 18.3334V15.0001C12.6159 13.9562 12.3166 12.9085 11.6667 12.0834C14.1667 12.0834 16.6667 10.4167 16.6667 7.50008C16.7333 6.45841 16.4417 5.43341 15.8333 4.58341C16.0667 3.62508 16.0667 2.62508 15.8333 1.66675C15.8333 1.66675 15 1.66675 13.3333 2.91675C11.1333 2.50008 8.86666 2.50008 6.66666 2.91675C4.99999 1.66675 4.16666 1.66675 4.16666 1.66675C3.91666 2.62508 3.91666 3.62508 4.16666 4.58341C3.55988 5.42998 3.26538 6.46074 3.33332 7.50008C3.33332 10.4167 5.83332 12.0834 8.33332 12.0834C8.00832 12.4917 7.76666 12.9584 7.62499 13.4584C7.48332 13.9584 7.44166 14.4834 7.49999 15.0001V18.3334" stroke="#999999" stroke-width="1.66667" stroke-linecap="round" stroke-linejoin="round"/>
<path d="M7.49996 14.9999C3.74163 16.6666 3.33329 13.3333 1.66663 13.3333" stroke="#999999" stroke-width="1.66667" stroke-linecap="round" stroke-linejoin="round"/>
</svg>
