<?xml version="1.0" encoding="UTF-8"?>
<svg width="72" height="73" viewBox="0 0 72 73" fill="none" xmlns="http://www.w3.org/2000/svg">
<path d="M19.125 36.5C14.6495 36.5 10.3572 34.7221 7.19257 31.5574C4.0279 28.3927 2.25 24.1005 2.25 19.625C2.25 15.1495 4.0279 10.8572 7.19257 7.69257C10.3572 4.5279 14.6495 2.75 19.125 2.75C23.6005 2.75 27.8927 4.5279 31.0574 7.69257C34.2221 10.8572 36 15.1495 36 19.625C36 24.1005 34.2221 28.3927 31.0574 31.5574C27.8927 34.7221 23.6005 36.5 19.125 36.5ZM21.375 8.9375C21.375 8.48995 21.1972 8.06072 20.8807 7.74426C20.5643 7.42779 20.1351 7.25 19.6875 7.25C19.2399 7.25 18.8107 7.42779 18.4943 7.74426C18.1778 8.06072 18 8.48995 18 8.9375V17.375H9.5625C9.11495 17.375 8.68572 17.5528 8.36926 17.8693C8.05279 18.1857 7.875 18.6149 7.875 19.0625C7.875 19.5101 8.05279 19.9393 8.36926 20.2557C8.68572 20.5722 9.11495 20.75 9.5625 20.75H18V29.1875C18 29.6351 18.1778 30.0643 18.4943 30.3807C18.8107 30.6972 19.2399 30.875 19.6875 30.875C20.1351 30.875 20.5643 30.6972 20.8807 30.3807C21.1972 30.0643 21.375 29.6351 21.375 29.1875V20.75H29.8125C30.2601 20.75 30.6893 20.5722 31.0057 20.2557C31.3222 19.9393 31.5 19.5101 31.5 19.0625C31.5 18.6149 31.3222 18.1857 31.0057 17.8693C30.6893 17.5528 30.2601 17.375 29.8125 17.375H21.375V8.9375ZM9 37.166C9.723 37.5845 10.473 37.958 11.25 38.2865V57.875C11.25 59.2025 11.5785 60.458 12.1613 61.556L34.2563 39.2698C34.7792 38.7425 35.4013 38.3241 36.0868 38.0385C36.7722 37.7529 37.5074 37.6059 38.25 37.6059C38.9926 37.6059 39.7278 37.7529 40.4132 38.0385C41.0987 38.3241 41.7208 38.7425 42.2437 39.2698L64.3387 61.556C64.9378 60.4215 65.2506 59.1579 65.25 57.875V19.625C65.25 17.5364 64.4203 15.5334 62.9435 14.0565C61.4666 12.5797 59.4636 11.75 57.375 11.75H37.7865C37.46 10.9775 37.0857 10.2261 36.666 9.5H57.375C60.0603 9.5 62.6357 10.5667 64.5345 12.4655C66.4333 14.3643 67.5 16.9397 67.5 19.625V57.875C67.5 60.5603 66.4333 63.1357 64.5345 65.0345C62.6357 66.9333 60.0603 68 57.375 68H19.125C16.4397 68 13.8643 66.9333 11.9655 65.0345C10.0667 63.1357 9 60.5603 9 57.875V37.166ZM19.125 65.75H57.375C59.5755 65.75 61.5645 64.85 62.9932 63.3942L40.6463 40.8537C40.3325 40.5374 39.9592 40.2863 39.5479 40.115C39.1367 39.9436 38.6955 39.8554 38.25 39.8554C37.8045 39.8554 37.3633 39.9436 36.9521 40.115C36.5408 40.2863 36.1675 40.5374 35.8538 40.8537L13.5067 63.3942C14.2398 64.1404 15.1142 64.7329 16.0788 65.1374C17.0435 65.5419 18.079 65.7501 19.125 65.75ZM58.5 27.5C58.5 29.5886 57.6703 31.5916 56.1935 33.0685C54.7166 34.5453 52.7136 35.375 50.625 35.375C48.5364 35.375 46.5334 34.5453 45.0565 33.0685C43.5797 31.5916 42.75 29.5886 42.75 27.5C42.75 25.4114 43.5797 23.4084 45.0565 21.9315C46.5334 20.4547 48.5364 19.625 50.625 19.625C52.7136 19.625 54.7166 20.4547 56.1935 21.9315C57.6703 23.4084 58.5 25.4114 58.5 27.5ZM56.25 27.5C56.25 26.0082 55.6574 24.5774 54.6025 23.5225C53.5476 22.4676 52.1168 21.875 50.625 21.875C49.1332 21.875 47.7024 22.4676 46.6475 23.5225C45.5926 24.5774 45 26.0082 45 27.5C45 28.9918 45.5926 30.4226 46.6475 31.4775C47.7024 32.5324 49.1332 33.125 50.625 33.125C52.1168 33.125 53.5476 32.5324 54.6025 31.4775C55.6574 30.4226 56.25 28.9918 56.25 27.5Z" fill="#A3A3A3"/>
</svg>
