<?xml version="1.0" encoding="UTF-8"?>
<svg width="25" height="25" viewBox="0 0 25 25" fill="none" xmlns="http://www.w3.org/2000/svg">
<path d="M19.9393 16.3892H7.93928C7.00931 16.3892 6.54432 16.3892 6.16282 16.4914C5.12755 16.7688 4.31891 17.5774 4.0415 18.6127" stroke="white" stroke-width="1.5"/>
<path d="M8.0415 7.38916H16.0415" stroke="white" stroke-width="1.5" stroke-linecap="round"/>
<path d="M8.0415 10.8892H13.0415" stroke="white" stroke-width="1.5" stroke-linecap="round"/>
<path d="M10.0415 22.3892C7.21308 22.3892 5.79886 22.3892 4.92018 21.5105C4.0415 20.6318 4.0415 19.2176 4.0415 16.3892V8.38916C4.0415 5.56073 4.0415 4.14652 4.92018 3.26784C5.79886 2.38916 7.21308 2.38916 10.0415 2.38916H14.0415C16.8699 2.38916 18.2841 2.38916 19.1628 3.26784C20.0415 4.14652 20.0415 5.56073 20.0415 8.38916M14.0415 22.3892C16.8699 22.3892 18.2841 22.3892 19.1628 21.5105C20.0415 20.6318 20.0415 19.2176 20.0415 16.3892V12.3892" stroke="white" stroke-width="1.5" stroke-linecap="round"/>
</svg>
