<svg width="20" height="20" viewBox="0 0 20 20" fill="none" xmlns="http://www.w3.org/2000/svg">
<path d="M6.25 2.91669V5.41669M6.25 12.0834V15.4167" stroke="#64748B" stroke-width="1.5" stroke-linecap="round"/>
<path d="M5.66671 5.41669C5.37939 5.41669 5.10384 5.53082 4.90067 5.73399C4.69751 5.93715 4.58337 6.2127 4.58337 6.50002V11C4.58337 11.1423 4.6114 11.2832 4.66584 11.4146C4.72028 11.546 4.80008 11.6655 4.90067 11.7661C5.00127 11.8666 5.1207 11.9464 5.25213 12.0009C5.38357 12.0553 5.52444 12.0834 5.66671 12.0834H6.83337C6.97564 12.0834 7.11651 12.0553 7.24795 12.0009C7.37938 11.9464 7.49881 11.8666 7.59941 11.7661C7.7 11.6655 7.7798 11.546 7.83424 11.4146C7.88869 11.2832 7.91671 11.1423 7.91671 11V6.50002C7.91671 6.2127 7.80257 5.93715 7.59941 5.73399C7.39624 5.53082 7.12069 5.41669 6.83337 5.41669H5.66671Z" stroke="#64748B" stroke-width="1.5"/>
<path d="M13.75 5.41669V9.58335M13.75 13.75V17.0834" stroke="#64748B" stroke-width="1.5" stroke-linecap="round"/>
<path d="M13.1667 9.58337C12.8794 9.58337 12.6038 9.69751 12.4007 9.90067C12.1975 10.1038 12.0834 10.3794 12.0834 10.6667V12.6667C12.0834 12.954 12.1975 13.2296 12.4007 13.4327C12.6038 13.6359 12.8794 13.75 13.1667 13.75H14.3334C14.4756 13.75 14.6165 13.722 14.7479 13.6676C14.8794 13.6131 14.9988 13.5333 15.0994 13.4327C15.2 13.3321 15.2798 13.2127 15.3342 13.0813C15.3887 12.9498 15.4167 12.809 15.4167 12.6667V10.6667C15.4167 10.5244 15.3887 10.3836 15.3342 10.2521C15.2798 10.1207 15.2 10.0013 15.0994 9.90067C14.9988 9.80008 14.8794 9.72028 14.7479 9.66584C14.6165 9.6114 14.4756 9.58337 14.3334 9.58337H13.1667Z" stroke="#64748B" stroke-width="1.5"/>
</svg>
