<?xml version="1.0" encoding="UTF-8"?>
<svg width="33" height="32" viewBox="0 0 33 32" fill="none" xmlns="http://www.w3.org/2000/svg">
<path d="M26.6765 2.04688H6.37031C4.27163 2.04688 2.57031 3.74819 2.57031 5.84687V26.1531C2.57031 28.2518 4.27163 29.9531 6.37031 29.9531H26.6765C28.7752 29.9531 30.4765 28.2518 30.4765 26.1531V5.84687C30.4765 3.74819 28.7752 2.04688 26.6765 2.04688Z" fill="#D8D1E0"/>
<path d="M26.6765 2.04688H6.37031C4.27163 2.04688 2.57031 3.74819 2.57031 5.84687V26.1531C2.57031 28.2518 4.27163 29.9531 6.37031 29.9531H26.6765C28.7752 29.9531 30.4765 28.2518 30.4765 26.1531V5.84687C30.4765 3.74819 28.7752 2.04688 26.6765 2.04688Z" fill="url(#paint0_linear_562_6169)"/>
<path d="M26.6765 2.04688H6.37031C4.27163 2.04688 2.57031 3.74819 2.57031 5.84687V26.1531C2.57031 28.2518 4.27163 29.9531 6.37031 29.9531H26.6765C28.7752 29.9531 30.4765 28.2518 30.4765 26.1531V5.84687C30.4765 3.74819 28.7752 2.04688 26.6765 2.04688Z" fill="url(#paint1_radial_562_6169)"/>
<path d="M26.6765 2.04688H6.37031C4.27163 2.04688 2.57031 3.74819 2.57031 5.84687V26.1531C2.57031 28.2518 4.27163 29.9531 6.37031 29.9531H26.6765C28.7752 29.9531 30.4765 28.2518 30.4765 26.1531V5.84687C30.4765 3.74819 28.7752 2.04688 26.6765 2.04688Z" fill="url(#paint2_radial_562_6169)"/>
<path fill-rule="evenodd" clip-rule="evenodd" d="M12.0469 2.04688H11.0469V10.4375H2.57031V11.4375H11.0469V20.4062H2.57031V21.4062H11.0469V29.9531H12.0469V21.4062H21.0469V29.9531H22.0469V21.4062H30.4766V20.4062H22.0469V11.4375H30.4766V10.4375H22.0469V2.04688H21.0469V10.4375H12.0469V2.04688ZM21.0469 11.4375V20.4062H12.0469V11.4375H21.0469Z" fill="url(#paint3_linear_562_6169)"/>
<path fill-rule="evenodd" clip-rule="evenodd" d="M12.0469 2.04688H11.0469V10.4375H2.57031V11.4375H11.0469V20.4062H2.57031V21.4062H11.0469V29.9531H12.0469V21.4062H21.0469V29.9531H22.0469V21.4062H30.4766V20.4062H22.0469V11.4375H30.4766V10.4375H22.0469V2.04688H21.0469V10.4375H12.0469V2.04688ZM21.0469 11.4375V20.4062H12.0469V11.4375H21.0469Z" fill="url(#paint4_linear_562_6169)"/>
<path fill-rule="evenodd" clip-rule="evenodd" d="M12.0469 2.04688H11.0469V10.4375H2.57031V11.4375H11.0469V20.4062H2.57031V21.4062H11.0469V29.9531H12.0469V21.4062H21.0469V29.9531H22.0469V21.4062H30.4766V20.4062H22.0469V11.4375H30.4766V10.4375H22.0469V2.04688H21.0469V10.4375H12.0469V2.04688ZM21.0469 11.4375V20.4062H12.0469V11.4375H21.0469Z" fill="url(#paint5_linear_562_6169)"/>
<path fill-rule="evenodd" clip-rule="evenodd" d="M12.0469 2.04688H11.0469V10.4375H2.57031V11.4375H11.0469V20.4062H2.57031V21.4062H11.0469V29.9531H12.0469V21.4062H21.0469V29.9531H22.0469V21.4062H30.4766V20.4062H22.0469V11.4375H30.4766V10.4375H22.0469V2.04688H21.0469V10.4375H12.0469V2.04688ZM21.0469 11.4375V20.4062H12.0469V11.4375H21.0469Z" fill="url(#paint6_linear_562_6169)"/>
<path d="M3.56275 26.9816C3.4629 26.6547 3.40918 26.3077 3.40918 25.9481V24.5053L9.99504 17.9195C10.889 17.0256 12.3333 17.0099 13.2464 17.8842L15.0381 19.5999C15.2207 19.7747 15.5094 19.7716 15.6882 19.593L29.2159 6.07812C29.3073 6.39206 29.3563 6.72404 29.3563 7.06746V8.56648L17.0025 20.9085C16.1085 21.8017 14.6648 21.817 13.752 20.943L11.9603 19.2274C11.7777 19.0525 11.4888 19.0556 11.31 19.2344L3.56275 26.9816Z" fill="#B19AA4"/>
<path d="M3.56275 26.9816C3.4629 26.6547 3.40918 26.3077 3.40918 25.9481V24.5053L9.99504 17.9195C10.889 17.0256 12.3333 17.0099 13.2464 17.8842L15.0381 19.5999C15.2207 19.7747 15.5094 19.7716 15.6882 19.593L29.2159 6.07812C29.3073 6.39206 29.3563 6.72404 29.3563 7.06746V8.56648L17.0025 20.9085C16.1085 21.8017 14.6648 21.817 13.752 20.943L11.9603 19.2274C11.7777 19.0525 11.4888 19.0556 11.31 19.2344L3.56275 26.9816Z" fill="url(#paint7_radial_562_6169)"/>
<path d="M2.73547 27.2651C2.62809 26.9135 2.57031 26.5403 2.57031 26.1535V24.6018L9.65345 17.5187C10.6148 16.5573 12.1682 16.5405 13.1502 17.4808L15.0773 19.326C15.2736 19.514 15.5842 19.5107 15.7765 19.3185L30.3256 4.7832C30.4239 5.12083 30.4766 5.47788 30.4766 5.84724V7.45944L17.19 20.7334C16.2285 21.694 14.6757 21.7105 13.6941 20.7705L11.767 18.9253C11.5706 18.7373 11.26 18.7406 11.0677 18.9329L2.73547 27.2651Z" fill="url(#paint8_linear_562_6169)"/>
<path d="M3.89648 24.7855L10.4788 18.1325C11.0547 17.5504 11.991 17.5377 12.5825 18.1041L14.5056 19.9455C15.0939 20.5088 16.0242 20.4997 16.6014 19.9251L30.0403 6.54395" stroke="url(#paint9_radial_562_6169)" stroke-width="0.5"/>
<path d="M3.89648 24.7855L10.4788 18.1325C11.0547 17.5504 11.991 17.5377 12.5825 18.1041L14.5056 19.9455C15.0939 20.5088 16.0242 20.4997 16.6014 19.9251L30.0403 6.54395" stroke="url(#paint10_linear_562_6169)" stroke-width="0.5"/>
<defs>
<linearGradient id="paint0_linear_562_6169" x1="21.9986" y1="30.2157" x2="21.9986" y2="27.9181" gradientUnits="userSpaceOnUse">
<stop stop-color="#A88AC4"/>
<stop offset="1" stop-color="#CDBCE0" stop-opacity="0"/>
</linearGradient>
<radialGradient id="paint1_radial_562_6169" cx="0" cy="0" r="1" gradientUnits="userSpaceOnUse" gradientTransform="translate(30.4766 16.3954) rotate(177.86) scale(5.59248 21.8038)">
<stop stop-color="#F2EDF5"/>
<stop offset="1" stop-color="#DED3E7" stop-opacity="0"/>
</radialGradient>
<radialGradient id="paint2_radial_562_6169" cx="0" cy="0" r="1" gradientUnits="userSpaceOnUse" gradientTransform="translate(30.1098 2.88831) rotate(138.434) scale(4.93201 5.10499)">
<stop stop-color="#F7F4F7"/>
<stop offset="1" stop-color="#E2DCE5" stop-opacity="0"/>
</radialGradient>
<linearGradient id="paint3_linear_562_6169" x1="16.5235" y1="4.35937" x2="16.5235" y2="29.9531" gradientUnits="userSpaceOnUse">
<stop stop-color="#C2BEC6"/>
<stop offset="1" stop-color="#BAACC6"/>
</linearGradient>
<linearGradient id="paint4_linear_562_6169" x1="22.2423" y1="30.6683" x2="22.2423" y2="27.1871" gradientUnits="userSpaceOnUse">
<stop stop-color="#9E83B7"/>
<stop offset="1" stop-color="#9E83B7" stop-opacity="0"/>
</linearGradient>
<linearGradient id="paint5_linear_562_6169" x1="1.60156" y1="17.3594" x2="6.91406" y2="17.3594" gradientUnits="userSpaceOnUse">
<stop stop-color="#96909C"/>
<stop offset="1" stop-color="#96909C" stop-opacity="0"/>
</linearGradient>
<linearGradient id="paint6_linear_562_6169" x1="31.2891" y1="18.0469" x2="27.4766" y2="18.0469" gradientUnits="userSpaceOnUse">
<stop stop-color="#D6D1DA"/>
<stop offset="1" stop-color="#D6D1DA" stop-opacity="0"/>
</linearGradient>
<radialGradient id="paint7_radial_562_6169" cx="0" cy="0" r="1" gradientUnits="userSpaceOnUse" gradientTransform="translate(11.3534 19.4763) rotate(71.9277) scale(3.0185 3.7468)">
<stop offset="0.57821" stop-color="#814F7C"/>
<stop offset="1" stop-color="#814F7C" stop-opacity="0"/>
</radialGradient>
<linearGradient id="paint8_linear_562_6169" x1="28.1641" y1="13.4223" x2="4.60156" y2="23.1723" gradientUnits="userSpaceOnUse">
<stop stop-color="#DA267D"/>
<stop offset="1" stop-color="#DF2B49"/>
</linearGradient>
<radialGradient id="paint9_radial_562_6169" cx="0" cy="0" r="1" gradientUnits="userSpaceOnUse" gradientTransform="translate(13.8527 18.6586) rotate(122.6) scale(7.10744 9.62353)">
<stop stop-color="#F35571"/>
<stop offset="1" stop-color="#F35571" stop-opacity="0"/>
</radialGradient>
<linearGradient id="paint10_linear_562_6169" x1="30.8758" y1="6.54395" x2="16.9684" y2="21.4783" gradientUnits="userSpaceOnUse">
<stop stop-color="#EE4591"/>
<stop offset="1" stop-color="#EE4591" stop-opacity="0"/>
</linearGradient>
</defs>
</svg>
