<svg width="22" height="23" viewBox="0 0 22 23" fill="none" xmlns="http://www.w3.org/2000/svg">
<path fill-rule="evenodd" clip-rule="evenodd" d="M13.9267 7.05534C13.9267 6.68715 14.2252 6.38867 14.5934 6.38867H19.5553C19.9235 6.38867 20.222 6.68715 20.222 7.05534V11.985C20.222 12.3532 19.9235 12.6516 19.5553 12.6516C19.1871 12.6516 18.8886 12.3532 18.8886 11.985V8.65788L13.4345 14.0787C13.0177 14.4931 12.6584 14.8502 12.3321 15.0977C11.9823 15.3631 11.5937 15.5638 11.1153 15.5638C10.6369 15.5637 10.2483 15.3629 9.89861 15.0975C9.57238 14.8499 9.21317 14.4926 8.79643 14.0782L8.55264 13.8358C8.09561 13.3813 7.7993 13.0887 7.55258 12.9014C7.32126 12.7259 7.21312 12.7063 7.1415 12.7063C7.06988 12.7064 6.96176 12.726 6.73057 12.9017C6.48398 13.0892 6.18788 13.382 5.73118 13.8368L2.24792 17.3055C1.98703 17.5653 1.56492 17.5644 1.30511 17.3035C1.04531 17.0426 1.0462 16.6205 1.30709 16.3607L4.82136 12.8612C5.23818 12.446 5.59744 12.0882 5.92375 11.8402C6.27353 11.5744 6.66227 11.3732 7.14101 11.373C7.61976 11.3728 8.00865 11.5737 8.35862 11.8393C8.68511 12.0871 9.04462 12.4446 9.46174 12.8595L9.70554 13.1019C10.1622 13.5559 10.4582 13.8483 10.7047 14.0354C10.9358 14.2108 11.0439 14.2304 11.1155 14.2304C11.187 14.2304 11.2951 14.2108 11.5262 14.0355C11.7728 13.8485 12.0689 13.5561 12.5256 13.1022L17.9388 7.72201H14.5934C14.2252 7.72201 13.9267 7.42353 13.9267 7.05534Z" fill="white"/>
</svg>
