<?xml version="1.0" encoding="UTF-8"?>
<svg width="24" height="24" viewBox="0 0 24 24" fill="none" xmlns="http://www.w3.org/2000/svg">
  <path fill-rule="evenodd" clip-rule="evenodd" d="M2 11C2 7.229 2 5.343 3.172 4.172C4.344 3.001 6.229 3 10 3H14.25V21H10C6.229 21 4.343 21 3.172 19.828C2.001 18.656 2 16.771 2 13V11ZM15.75 20.994V3.006C18.386 3.033 19.854 3.197 20.828 4.172C22 5.343 22 7.229 22 11V13C22 16.771 22 18.657 20.828 19.828C19.854 20.803 18.386 20.967 15.75 20.994ZM9.97 15.47C10.1106 15.3295 10.3012 15.2507 10.5 15.2507C10.6988 15.2507 10.8894 15.3295 11.03 15.47L12.03 16.47C12.1705 16.6106 12.2493 16.8012 12.2493 17C12.2493 17.1988 12.1705 17.3894 12.03 17.53L11.03 18.53C10.9613 18.6037 10.8785 18.6628 10.7865 18.7038C10.6945 18.7448 10.5952 18.7668 10.4945 18.7686C10.3938 18.7704 10.2938 18.7518 10.2004 18.7141C10.107 18.6764 10.0222 18.6203 9.95096 18.549C9.87974 18.4778 9.8236 18.393 9.78588 18.2996C9.74816 18.2062 9.72963 18.1062 9.73141 18.0055C9.73318 17.9048 9.75523 17.8055 9.79622 17.7135C9.83721 17.6215 9.89631 17.5387 9.97 17.47L10.44 17L9.97 16.53C9.82955 16.3894 9.75066 16.1988 9.75066 16C9.75066 15.8012 9.82955 15.6106 9.97 15.47ZM9.702 14.263C9.74009 14.1701 9.75914 14.0705 9.75801 13.97C9.75687 13.8696 9.73559 13.7705 9.69541 13.6784C9.65522 13.5864 9.59697 13.5034 9.5241 13.4343C9.45123 13.3652 9.36522 13.3114 9.27118 13.2762C9.17714 13.2409 9.07698 13.225 8.97664 13.2292C8.87631 13.2334 8.77784 13.2577 8.68708 13.3007C8.59631 13.3436 8.51511 13.4044 8.44827 13.4794C8.38144 13.5543 8.33034 13.6419 8.298 13.737L6.798 17.737C6.73523 17.9216 6.74678 18.1233 6.83021 18.2995C6.91364 18.4757 7.06238 18.6124 7.24493 18.6808C7.42748 18.7492 7.62948 18.7438 7.80813 18.6659C7.98679 18.5879 8.12805 18.4434 8.202 18.263L9.702 14.263ZM6.53 13.47C6.67045 13.6106 6.74934 13.8012 6.74934 14C6.74934 14.1988 6.67045 14.3894 6.53 14.53L6.06 15L6.53 15.47C6.60369 15.5387 6.66279 15.6215 6.70378 15.7135C6.74477 15.8055 6.76681 15.9048 6.76859 16.0055C6.77037 16.1062 6.75184 16.2062 6.71412 16.2996C6.6764 16.393 6.62026 16.4778 6.54904 16.549C6.47782 16.6203 6.39299 16.6764 6.2996 16.7141C6.20621 16.7518 6.10618 16.7704 6.00548 16.7686C5.90477 16.7668 5.80546 16.7448 5.71346 16.7038C5.62146 16.6628 5.53866 16.6037 5.47 16.53L4.47 15.53C4.32955 15.3894 4.25066 15.1988 4.25066 15C4.25066 14.8012 4.32955 14.6106 4.47 14.47L5.47 13.47C5.61063 13.3295 5.80125 13.2507 6 13.2507C6.19875 13.2507 6.38937 13.3295 6.53 13.47Z" fill="#65A30D"/>
</svg> 