<?xml version="1.0" encoding="UTF-8"?>
<svg width="33" height="32" viewBox="0 0 33 32" fill="none" xmlns="http://www.w3.org/2000/svg">
<path d="M16.498 30.9549C24.7574 30.9549 31.453 24.2593 31.453 15.9999C31.453 7.7405 24.7574 1.04492 16.498 1.04492C8.23855 1.04492 1.54297 7.7405 1.54297 15.9999C1.54297 24.2593 8.23855 30.9549 16.498 30.9549Z" fill="url(#paint0_radial_562_6425)"/>
<path opacity="0.2" d="M16.498 1.79492C24.3305 1.79492 30.703 8.16742 30.703 15.9999C30.703 23.8324 24.3305 30.2049 16.498 30.2049C8.66547 30.2049 2.29297 23.8324 2.29297 15.9999C2.29297 8.16742 8.66547 1.79492 16.498 1.79492ZM16.498 1.04492C8.23797 1.04492 1.54297 7.74242 1.54297 15.9999C1.54297 24.2574 8.23797 30.9549 16.498 30.9549C24.758 30.9549 31.453 24.2599 31.453 15.9999C31.453 7.73992 24.7555 1.04492 16.498 1.04492Z" fill="#434343"/>
<path d="M16.497 26.415C22.2491 26.415 26.912 21.752 26.912 16C26.912 10.2479 22.2491 5.58496 16.497 5.58496C10.745 5.58496 6.08203 10.2479 6.08203 16C6.08203 21.752 10.745 26.415 16.497 26.415Z" fill="#FEFCE9"/>
<path d="M16.4978 22.6773C20.1857 22.6773 23.1753 19.6876 23.1753 15.9998C23.1753 12.3119 20.1857 9.32227 16.4978 9.32227C12.8099 9.32227 9.82031 12.3119 9.82031 15.9998C9.82031 19.6876 12.8099 22.6773 16.4978 22.6773Z" fill="url(#paint1_radial_562_6425)"/>
<path d="M16.4976 18.0021C17.6036 18.0021 18.5001 17.1055 18.5001 15.9996C18.5001 14.8936 17.6036 13.9971 16.4976 13.9971C15.3917 13.9971 14.4951 14.8936 14.4951 15.9996C14.4951 17.1055 15.3917 18.0021 16.4976 18.0021Z" fill="#FEFCE9"/>
<path d="M28.01 4.56219L28.0975 2.45219C28.1375 1.50219 27.2925 0.829688 26.355 1.06469L24.615 1.49719C24.015 1.64719 23.535 2.13469 23.3975 2.73719L21.5 11.0722L21.515 11.0647L28.015 4.56469L28.01 4.56219Z" fill="#09BCD4"/>
<path d="M28.0129 4.5625L30.1229 4.475C31.0729 4.435 31.7454 5.28 31.5104 6.2175L31.0779 7.9575C30.9279 8.5575 30.4404 9.0375 29.8379 9.175L21.5029 11.0725L21.5104 11.0575L28.0104 4.5575L28.0129 4.5625Z" fill="#38A4DD"/>
<path d="M16.8304 16.2828C16.4804 16.5953 15.9929 16.1078 16.3029 15.7578L25.6854 5.39531C26.0979 4.98281 26.7679 4.98281 27.1804 5.39531C27.5929 5.80781 27.5929 6.47781 27.1804 6.89031L16.8304 16.2828Z" fill="#1B87C9"/>
<path opacity="0.2" d="M26.7271 1.51758C26.9746 1.51758 27.1996 1.61008 27.3621 1.78008C27.5246 1.94758 27.6071 2.18008 27.5971 2.43258L27.5096 4.53758C27.5046 4.63508 27.5296 4.73008 27.5771 4.81008C27.5996 4.84758 27.6246 4.88008 27.6546 4.91008C27.7471 5.00508 27.8771 5.06258 28.0121 5.06258H28.0321L30.1371 4.97508H30.1796C30.4596 4.97508 30.7046 5.09008 30.8671 5.29758C31.0371 5.51258 31.0921 5.80508 31.0196 6.09508L30.5871 7.83508C30.4846 8.24758 30.1371 8.59008 29.7221 8.68508L22.8121 10.2601C22.7271 10.2801 22.6496 10.3201 22.5871 10.3776L18.4171 14.1676L22.1921 9.99758C22.2496 9.93508 22.2896 9.85758 22.3096 9.77258L23.8871 2.84758C23.9821 2.43258 24.3221 2.08508 24.7371 1.98258L26.4771 1.55008C26.5596 1.52758 26.6446 1.51758 26.7271 1.51758ZM26.7271 1.01758C26.6046 1.01758 26.4796 1.03258 26.3546 1.06508L24.6146 1.49758C24.0146 1.64758 23.5346 2.13508 23.3971 2.73758L21.8196 9.66258L16.3021 15.7551C16.0596 16.0276 16.2996 16.3801 16.5821 16.3801C16.6646 16.3801 16.7496 16.3501 16.8271 16.2801L22.9246 10.7501L29.8346 9.17508C30.4346 9.03758 30.9246 8.55758 31.0746 7.95758L31.5071 6.21758C31.7346 5.30008 31.0971 4.47508 30.1821 4.47508C30.1621 4.47508 30.1396 4.47508 30.1171 4.47758L28.0121 4.56508H28.0071V4.56008L28.0946 2.45508C28.1296 1.63008 27.5046 1.01758 26.7271 1.01758Z" fill="#434343"/>
<defs>
<radialGradient id="paint0_radial_562_6425" cx="0" cy="0" r="1" gradientUnits="userSpaceOnUse" gradientTransform="translate(12.2242 8.99067) scale(15.5455)">
<stop offset="0.4707" stop-color="#EF5451"/>
<stop offset="0.8338" stop-color="#E53A35"/>
</radialGradient>
<radialGradient id="paint1_radial_562_6425" cx="0" cy="0" r="1" gradientUnits="userSpaceOnUse" gradientTransform="translate(15.2073 13.4213) scale(7.663)">
<stop offset="0.4707" stop-color="#EF5451"/>
<stop offset="0.8338" stop-color="#E53A35"/>
</radialGradient>
</defs>
</svg>
