<?xml version="1.0" encoding="UTF-8"?>
<svg width="25" height="25" viewBox="0 0 25 25" fill="none" xmlns="http://www.w3.org/2000/svg">
<path d="M20.3718 4.43851C18.795 3.70428 17.1304 3.1834 15.4204 2.88916C15.1865 3.31458 14.9747 3.75229 14.7862 4.20044C12.9648 3.92129 11.1125 3.92129 9.29113 4.20044C9.10247 3.75233 8.89076 3.31464 8.65687 2.88916C6.94585 3.18588 5.28012 3.708 3.7017 4.44235C0.568149 9.15758 -0.281308 13.7557 0.143421 18.2885C1.97851 19.6675 4.03249 20.7163 6.2161 21.3892C6.70778 20.7166 7.14286 20.0031 7.51671 19.2562C6.80663 18.9864 6.12127 18.6537 5.46857 18.2617C5.64035 18.135 5.80836 18.0044 5.9707 17.8777C7.86989 18.7861 9.94276 19.2571 12.0415 19.2571C14.1402 19.2571 16.2131 18.7861 18.1123 17.8777C18.2765 18.014 18.4445 18.1446 18.6144 18.2617C17.9604 18.6543 17.2738 18.9877 16.5625 19.2581C16.9359 20.0046 17.371 20.7176 17.8631 21.3892C20.0486 20.719 22.1041 19.6707 23.9396 18.2905C24.4379 13.0338 23.0882 8.47794 20.3718 4.43851ZM8.0547 15.5009C6.87112 15.5009 5.8933 14.4085 5.8933 13.0645C5.8933 11.7206 6.83714 10.6186 8.05092 10.6186C9.2647 10.6186 10.235 11.7206 10.2142 13.0645C10.1934 14.4085 9.26093 15.5009 8.0547 15.5009ZM16.0283 15.5009C14.8428 15.5009 13.8688 14.4085 13.8688 13.0645C13.8688 11.7206 14.8126 10.6186 16.0283 10.6186C17.2439 10.6186 18.2067 11.7206 18.1859 13.0645C18.1651 14.4085 17.2345 15.5009 16.0283 15.5009Z" fill="white"/>
</svg>
