<?xml version="1.0" encoding="UTF-8"?>
<svg width="17" height="16" viewBox="0 0 17 16" fill="none" xmlns="http://www.w3.org/2000/svg">
<path d="M7.71909 8.97149C7.62609 8.87953 7.50036 8.82828 7.36957 8.82902C7.23878 8.82976 7.11363 8.88243 7.02167 8.97544C6.92971 9.06845 6.87847 9.19418 6.8792 9.32498C6.87994 9.45578 6.93261 9.58093 7.02562 9.67289L7.71909 8.97149ZM13.5233 2.78313C14.1403 3.40025 14.4869 4.23718 14.4869 5.10985C14.4869 5.98252 14.1403 6.81945 13.5233 7.43656L14.2213 8.13336C15.0232 7.33134 15.4736 6.24365 15.4736 5.10952C15.4736 3.97539 15.0232 2.8877 14.2213 2.08568L13.5233 2.78313ZM14.2213 2.08568C13.4194 1.2838 12.3317 0.833984 11.1977 0.833984C10.0636 0.833984 8.97595 1.28446 8.17396 2.08633L8.87073 2.78313C9.48781 2.16611 10.3247 1.81948 11.1973 1.81948C12.0699 1.81948 12.9062 2.16611 13.5233 2.78313L14.2213 2.08568ZM7.04336 6.2737L5.00829 8.30756L5.70505 9.00436L7.73881 6.97116L7.04336 6.2737ZM7.99977 11.2979L8.67944 10.6182L7.98202 9.92138L7.30235 10.6004L7.99977 11.2979ZM8.67944 10.6182L10.0335 9.26402L9.33611 8.56722L7.98202 9.92138L8.67944 10.6182ZM4.63559 9.37314L4.76311 10.5176L5.74252 10.4085L5.61566 9.26468L4.63559 9.37314ZM5.78985 11.5444L6.93359 11.6719L7.04271 10.6918L5.89896 10.5649L5.78985 11.5444ZM5.0589 11.1342L5.17328 11.2479L5.87004 10.5511L5.75632 10.4374L5.0589 11.1342ZM5.89896 10.5649C5.88821 10.5638 5.87821 10.5589 5.8707 10.5511L5.17328 11.2479C5.33892 11.4142 5.5565 11.5188 5.78985 11.5444L5.89896 10.5649ZM4.76311 10.5176C4.78874 10.751 4.89326 10.9685 5.0589 11.1342L5.75632 10.4374C5.74865 10.4296 5.74333 10.4194 5.74252 10.4085L4.76311 10.5176ZM7.30235 10.6004C7.26879 10.6343 7.22799 10.6601 7.18302 10.6759C7.13805 10.6917 7.09008 10.6972 7.04271 10.6918L6.93425 11.6713C7.12849 11.693 7.32514 11.6708 7.5096 11.6061C7.69407 11.5415 7.8616 11.4361 7.99977 11.2979L7.30235 10.6004ZM5.00829 8.30756C4.86983 8.44575 4.76496 8.61338 4.70021 8.79797C4.63545 8.98257 4.61314 9.17939 4.63493 9.3738L5.615 9.26468C5.60962 9.2173 5.61505 9.16933 5.63088 9.12436C5.6467 9.07939 5.67251 9.03793 5.70637 9.00436L5.00829 8.30756ZM8.01029 5.93187C7.86697 5.3776 7.87091 4.79551 8.02172 4.24323C8.17252 3.69095 8.46495 3.18764 8.87007 2.78313L8.17396 2.08633C7.64769 2.61189 7.26706 3.26573 7.07096 3.98319C6.87486 4.70065 6.87008 5.45687 7.05585 6.17707L8.01029 5.93187ZM13.5233 7.43656C13.1188 7.8417 12.6155 8.13415 12.0632 8.28496C11.511 8.43577 10.9289 8.43971 10.3747 8.29639L10.1302 9.25153C10.8504 9.43751 11.606 9.43225 12.3235 9.23625C13.0411 9.04025 13.6944 8.66032 14.22 8.13402L13.5233 7.43656ZM10.0329 9.26402C10.0412 9.25686 10.0511 9.25189 10.0618 9.24956C10.0841 9.24429 10.1081 9.24497 10.1302 9.25153L10.3747 8.29639C10.0283 8.20764 9.62402 8.2793 9.33611 8.56722L10.0329 9.26402ZM7.73881 6.97116C8.02672 6.68389 8.09903 6.2783 8.01029 5.93253L7.05585 6.17707C7.06199 6.2038 7.06199 6.22637 7.05717 6.24478C7.05474 6.25577 7.04954 6.26595 7.04205 6.27436L7.73881 6.97116ZM8.67682 9.9194L7.71844 8.97149L7.02496 9.67289L7.98334 10.6201L8.67682 9.9194Z" fill="#0D9488"/>
<path opacity="0.5" d="M10.7197 5.58664C10.6637 5.53066 10.6193 5.4642 10.589 5.39106C10.5587 5.31791 10.5431 5.23951 10.5431 5.16034C10.5431 5.08117 10.5587 5.00277 10.589 4.92962C10.6193 4.85648 10.6637 4.79002 10.7197 4.73404L10.0223 4.03724C9.72437 4.3352 9.55701 4.73931 9.55701 5.16067C9.55701 5.58203 9.72437 5.98613 10.0223 6.28409L10.7197 5.58664ZM11.5716 5.58664C11.5156 5.64263 11.4492 5.68704 11.376 5.71735C11.3029 5.74765 11.2245 5.76325 11.1453 5.76325C11.0662 5.76325 10.9878 5.74765 10.9146 5.71735C10.8415 5.68704 10.775 5.64263 10.7191 5.58664L10.0223 6.28343C10.3202 6.58117 10.7242 6.74841 11.1453 6.74841C11.5665 6.74841 11.9704 6.58117 12.2684 6.28343L11.5716 5.58664ZM11.5716 4.73404C11.6276 4.79002 11.672 4.85648 11.7023 4.92962C11.7326 5.00277 11.7482 5.08117 11.7482 5.16034C11.7482 5.23951 11.7326 5.31791 11.7023 5.39106C11.672 5.4642 11.6276 5.53066 11.5716 5.58664L12.2684 6.28343C12.5661 5.9855 12.7333 5.58154 12.7333 5.16034C12.7333 4.73914 12.5661 4.33518 12.2684 4.03724L11.5716 4.73404ZM12.2684 4.03724C11.9704 3.73951 11.5665 3.57227 11.1453 3.57227C10.7242 3.57227 10.3202 3.73951 10.0223 4.03724L10.7191 4.73404C10.775 4.67805 10.8415 4.63364 10.9146 4.60333C10.9878 4.57303 11.0662 4.55743 11.1453 4.55743C11.2245 4.55743 11.3029 4.57303 11.376 4.60333C11.4492 4.63364 11.5156 4.67805 11.5716 4.73404L12.2684 4.03724Z" fill="#0D9488"/>
<path opacity="0.5" d="M14.9799 9.86624C14.9378 11.7029 14.7629 12.7757 14.0294 13.5087C13.0657 14.4723 11.5158 14.4723 8.41319 14.4723C5.31062 14.4723 3.76065 14.4723 2.79701 13.5087C1.83337 12.545 1.83337 10.9949 1.83337 7.89219C1.83337 4.78947 1.83337 3.23942 2.79701 2.27573C3.52927 1.54212 4.60268 1.36727 6.43924 1.3252" stroke="#0D9488" stroke-linecap="round"/>
</svg>
