<svg width="18" height="18" viewBox="0 0 18 18" fill="none" xmlns="http://www.w3.org/2000/svg">
<path d="M12.75 15C12.75 15.3978 12.908 15.7794 13.1893 16.0607C13.4706 16.342 13.8522 16.5 14.25 16.5C14.6478 16.5 15.0294 16.342 15.3107 16.0607C15.592 15.7794 15.75 15.3978 15.75 15C15.75 14.6022 15.592 14.2206 15.3107 13.9393C15.0294 13.658 14.6478 13.5 14.25 13.5C13.8522 13.5 13.4706 13.658 13.1893 13.9393C12.908 14.2206 12.75 14.6022 12.75 15ZM12.75 15H11.25M5.25 3C5.25 3.39782 5.09196 3.77936 4.81066 4.06066C4.52936 4.34196 4.14782 4.5 3.75 4.5C3.35218 4.5 2.97064 4.34196 2.68934 4.06066C2.40804 3.77936 2.25 3.39782 2.25 3C2.25 2.60218 2.40804 2.22064 2.68934 1.93934C2.97064 1.65804 3.35218 1.5 3.75 1.5C4.14782 1.5 4.52936 1.65804 4.81066 1.93934C5.09196 2.22064 5.25 2.60218 5.25 3ZM5.25 3H6.75M10.5 3H9M9 15H7.5M2.25 15C8.25 15 9.75 3 15.75 3" stroke="#020617" stroke-width="1.5" stroke-linecap="round" stroke-linejoin="round"/>
</svg>
