<?xml version="1.0" encoding="UTF-8"?>
<svg width="33" height="32" viewBox="0 0 33 32" fill="none" xmlns="http://www.w3.org/2000/svg">
<path d="M9.39009 10.183C9.24759 11.703 9.14759 14.393 10.0451 15.538C10.0451 15.538 9.62259 12.583 13.4101 8.87546C14.9351 7.38296 15.2876 5.35296 14.7551 3.83046C14.4526 2.96796 13.9001 2.25546 13.4201 1.75796C13.1401 1.46546 13.3551 0.982963 13.7626 1.00046C16.2276 1.11046 20.2226 1.79546 21.9201 6.05546C22.6651 7.92546 22.7201 9.85796 22.3651 11.823C22.1401 13.078 21.3401 15.868 23.1651 16.2105C24.4676 16.4555 25.0976 15.4205 25.3801 14.6755C25.4976 14.3655 25.9051 14.288 26.1251 14.5355C28.3251 17.038 28.5126 19.9855 28.0576 22.523C27.1776 27.428 22.2101 30.998 17.2751 30.998C11.1101 30.998 6.20259 27.4705 4.93009 21.0855C4.41759 18.508 4.67759 13.408 8.65259 9.80796C8.94759 9.53796 9.43009 9.77796 9.39009 10.183Z" fill="url(#paint0_radial_562_6411)"/>
<path d="M19.5277 19.3553C17.2552 16.4303 18.2727 13.0928 18.8302 11.7628C18.9052 11.5878 18.7052 11.4228 18.5477 11.5303C17.5702 12.1953 15.5677 13.7603 14.6352 15.9628C13.3727 18.9403 13.4627 20.3978 14.2102 22.1778C14.6602 23.2503 14.1377 23.4778 13.8752 23.5178C13.6202 23.5578 13.3852 23.3878 13.1977 23.2103C12.6602 22.6978 12.2727 22.0303 12.0877 21.3103C12.0477 21.1553 11.8452 21.1128 11.7527 21.2403C11.0527 22.2078 10.6902 23.7603 10.6727 24.8578C10.6177 28.2503 13.4202 31.0003 16.8102 31.0003C21.0827 31.0003 24.1952 26.2753 21.7402 22.3253C21.0277 21.1753 20.3577 20.4228 19.5277 19.3553Z" fill="url(#paint1_radial_562_6411)"/>
<defs>
<radialGradient id="paint0_radial_562_6411" cx="0" cy="0" r="1" gradientUnits="userSpaceOnUse" gradientTransform="translate(16.0541 31.0757) rotate(-179.751) scale(17.6469 28.9551)">
<stop offset="0.3144" stop-color="#FF9800"/>
<stop offset="0.6616" stop-color="#FF6D00"/>
<stop offset="0.9715" stop-color="#F44336"/>
</radialGradient>
<radialGradient id="paint1_radial_562_6411" cx="0" cy="0" r="1" gradientUnits="userSpaceOnUse" gradientTransform="translate(17.0451 13.515) rotate(90.5787) scale(18.4641 13.8956)">
<stop offset="0.2141" stop-color="#FFF176"/>
<stop offset="0.3275" stop-color="#FFF27D"/>
<stop offset="0.4868" stop-color="#FFF48F"/>
<stop offset="0.6722" stop-color="#FFF7AD"/>
<stop offset="0.7931" stop-color="#FFF9C4"/>
<stop offset="0.8221" stop-color="#FFF8BD" stop-opacity="0.804"/>
<stop offset="0.8627" stop-color="#FFF6AB" stop-opacity="0.529"/>
<stop offset="0.9101" stop-color="#FFF38D" stop-opacity="0.2088"/>
<stop offset="0.9409" stop-color="#FFF176" stop-opacity="0"/>
</radialGradient>
</defs>
</svg>
