<?xml version="1.0" encoding="UTF-8"?>
<svg width="24" height="24" viewBox="0 0 24 24" fill="none" xmlns="http://www.w3.org/2000/svg">
  <path fill-rule="evenodd" clip-rule="evenodd" d="M14.9997 3.25C15.1986 3.25 15.3893 3.32902 15.53 3.46967C15.6707 3.61032 15.7497 3.80109 15.7497 4V5C15.7497 5.46413 15.5653 5.90925 15.2371 6.23744C14.9089 6.56563 14.4638 6.75 13.9997 6.75H12.9997C12.9334 6.75 12.8698 6.77634 12.8229 6.82322C12.776 6.87011 12.7497 6.9337 12.7497 7V8H13.1717C15.7117 8 16.9807 8 17.9567 8.614C18.204 8.76933 18.4317 8.95 18.6397 9.156C19.4597 9.966 19.7497 11.203 20.3267 13.676L21.3497 18.049C21.5101 18.733 21.4129 19.4522 21.0768 20.0691C20.7406 20.686 20.189 21.1575 19.5272 21.3935C18.8655 21.6295 18.14 21.6135 17.4893 21.3485C16.8386 21.0835 16.3083 20.5882 15.9997 19.957L15.8797 19.711C15.6163 19.1725 15.207 18.7188 14.6983 18.4017C14.1896 18.0845 13.6021 17.9165 13.0027 17.917H10.9977C10.3984 17.9167 9.81109 18.0848 9.30263 18.4019C8.79416 18.7191 8.38498 19.1727 8.12167 19.711L8.00167 19.957C7.69305 20.5882 7.16276 21.0835 6.51207 21.3485C5.86138 21.6135 5.13589 21.6295 4.47414 21.3935C3.81239 21.1575 3.26076 20.686 2.92458 20.0691C2.58841 19.4522 2.49126 18.733 2.65167 18.049L3.67367 13.675C4.25167 11.203 4.54067 9.967 5.35967 9.156C5.56722 8.95093 5.79659 8.76918 6.04367 8.614C7.01967 8 8.28967 8 10.8297 8H11.2517V7C11.2517 6.034 12.0347 5.25 13.0017 5.25H14.0017C14.068 5.25 14.1316 5.22366 14.1784 5.17678C14.2253 5.12989 14.2517 5.0663 14.2517 5V4C14.2517 3.80109 14.3307 3.61032 14.4713 3.46967C14.612 3.32902 14.8028 3.25 15.0017 3.25M15.9997 12C15.9997 12.2652 15.8943 12.5196 15.7068 12.7071C15.5192 12.8946 15.2649 13 14.9997 13C14.7345 13 14.4801 12.8946 14.2926 12.7071C14.105 12.5196 13.9997 12.2652 13.9997 12C13.9997 11.7348 14.105 11.4804 14.2926 11.2929C14.4801 11.1054 14.7345 11 14.9997 11C15.2649 11 15.5192 11.1054 15.7068 11.2929C15.8943 11.4804 15.9997 11.7348 15.9997 12ZM8.49967 11.25C8.69859 11.25 8.88935 11.329 9.03 11.4697C9.17066 11.6103 9.24967 11.8011 9.24967 12V12.75H9.99967C10.1986 12.75 10.3894 12.829 10.53 12.9697C10.6707 13.1103 10.7497 13.3011 10.7497 13.5C10.7497 13.6989 10.6707 13.8897 10.53 14.0303C10.3894 14.171 10.1986 14.25 9.99967 14.25H9.24967V15C9.24967 15.1989 9.17066 15.3897 9.03 15.5303C8.88935 15.671 8.69859 15.75 8.49967 15.75C8.30076 15.75 8.11 15.671 7.96934 15.5303C7.82869 15.3897 7.74967 15.1989 7.74967 15V14.25H6.99967C6.80076 14.25 6.61 14.171 6.46934 14.0303C6.32869 13.8897 6.24967 13.6989 6.24967 13.5C6.24967 13.3011 6.32869 13.1103 6.46934 12.9697C6.61 12.829 6.80076 12.75 6.99967 12.75H7.74967V12C7.74967 11.8011 7.82869 11.6103 7.96934 11.4697C8.11 11.329 8.30076 11.25 8.49967 11.25ZM16.9997 15.5C17.2649 15.5 17.5192 15.3946 17.7068 15.2071C17.8943 15.0196 17.9997 14.7652 17.9997 14.5C17.9997 14.2348 17.8943 13.9804 17.7068 13.7929C17.5192 13.6054 17.2649 13.5 16.9997 13.5C16.7345 13.5 16.4801 13.6054 16.2926 13.7929C16.105 13.9804 15.9997 14.2348 15.9997 14.5C15.9997 14.7652 16.105 15.0196 16.2926 15.2071C16.4801 15.3946 16.7345 15.5 16.9997 15.5Z" fill="#F59E0B"/>
</svg> 