<?xml version="1.0" encoding="UTF-8"?>
<svg width="24" height="24" viewBox="0 0 24 24" fill="none" xmlns="http://www.w3.org/2000/svg">
  <path fill-rule="evenodd" clip-rule="evenodd" d="M3.378 5.082C3 5.62 3 7.22 3 10.417V11.991C3 17.629 7.239 20.366 9.899 21.527C10.62 21.842 10.981 22 12 22C13.02 22 13.38 21.842 14.101 21.527C16.761 20.365 21 17.63 21 11.991V10.417C21 7.219 21 5.62 20.622 5.082C20.245 4.545 18.742 4.03 15.735 3.001L15.162 2.805C13.595 2.268 12.812 2 12 2C11.188 2 10.405 2.268 8.838 2.805L8.265 3C5.258 4.03 3.755 4.545 3.378 5.082ZM16.45 10.95L13.05 8.4C12.7471 8.17281 12.3786 8.05 12 8.05C11.6214 8.05 11.2529 8.17281 10.95 8.4L7.55 10.95C7.47121 11.0091 7.40483 11.0831 7.35464 11.1679C7.30446 11.2526 7.27147 11.3464 7.25754 11.4439C7.24361 11.5414 7.24902 11.6407 7.27346 11.7361C7.29791 11.8315 7.34091 11.9212 7.4 12C7.4591 12.0788 7.53313 12.1452 7.61788 12.1954C7.70263 12.2455 7.79643 12.2785 7.89393 12.2925C7.99144 12.3064 8.09073 12.301 8.18614 12.2765C8.28155 12.2521 8.37121 12.2091 8.45 12.15L11.85 9.6C11.8933 9.56754 11.9459 9.55 12 9.55C12.0541 9.55 12.1067 9.56754 12.15 9.6L15.55 12.15C15.6288 12.2091 15.7185 12.2521 15.8139 12.2765C15.9093 12.301 16.0086 12.3064 16.1061 12.2925C16.2036 12.2785 16.2974 12.2455 16.3821 12.1954C16.4669 12.1452 16.5409 12.0788 16.6 12C16.6591 11.9212 16.7021 11.8315 16.7265 11.7361C16.751 11.6407 16.7564 11.5414 16.7425 11.4439C16.7285 11.3464 16.6955 11.2526 16.6454 11.1679C16.5952 11.0831 16.5288 11.0091 16.45 10.95ZM14.45 13.45L12.45 11.95C12.3202 11.8526 12.1623 11.8 12 11.8C11.8377 11.8 11.6798 11.8526 11.55 11.95L9.55 13.45C9.39087 13.5693 9.28567 13.747 9.25754 13.9439C9.22941 14.1408 9.28065 14.3409 9.4 14.5C9.51935 14.6591 9.69702 14.7643 9.89393 14.7925C10.0908 14.8206 10.2909 14.7693 10.45 14.65L12 13.488L13.55 14.65C13.7091 14.7693 13.9092 14.8206 14.1061 14.7925C14.303 14.7643 14.4807 14.6591 14.6 14.5C14.7193 14.3409 14.7706 14.1408 14.7425 13.9439C14.7143 13.747 14.6091 13.5693 14.45 13.45Z" fill="#3B82F6"/>
</svg> 