<?xml version="1.0" encoding="UTF-8"?>
<svg width="27" height="27" viewBox="0 0 27 27" fill="none" xmlns="http://www.w3.org/2000/svg">
<g opacity="0.5">
<path d="M23.6227 12.375C23.6242 12.9037 23.625 13.4663 23.625 14.0625C23.625 19.1003 23.625 21.6202 22.0601 23.1851C20.4952 24.75 17.9764 24.75 12.9375 24.75C7.89975 24.75 5.37975 24.75 3.81488 23.1851C2.25 21.6202 2.25 19.1014 2.25 14.0625C2.25 9.02475 2.25 6.50475 3.81488 4.93987C5.37975 3.375 7.89862 3.375 12.9375 3.375C13.5337 3.375 14.0963 3.37575 14.625 3.37725" stroke="white" stroke-width="1.6875" stroke-linecap="round" stroke-linejoin="round"/>
<path d="M5 23.5C9 17.5 14.9332 10.557 23.0602 15.7972M20.25 2.25L20.5402 3.03413C20.9205 4.06238 21.1106 4.5765 21.4852 4.95113C21.861 5.32688 22.3751 5.517 23.4034 5.89725L24.1875 6.1875L23.4034 6.47775C22.3751 6.858 21.861 7.04812 21.4864 7.42275C21.1106 7.7985 20.9205 8.31263 20.5402 9.34088L20.25 10.125L19.9598 9.34088C19.5795 8.31263 19.3894 7.7985 19.0148 7.42387C18.639 7.04812 18.1249 6.858 17.0966 6.47775L16.3125 6.1875L17.0966 5.89725C18.1249 5.517 18.639 5.32688 19.0136 4.95225C19.3894 4.5765 19.5795 4.06238 19.9598 3.03413L20.25 2.25Z" stroke="white" stroke-width="1.6875" stroke-linecap="round" stroke-linejoin="round"/>
</g>
</svg>
