<?xml version="1.0" encoding="UTF-8"?>
<svg width="33" height="32" viewBox="0 0 33 32" fill="none" xmlns="http://www.w3.org/2000/svg">
<path d="M20.8009 26.5688C20.5049 27.8008 19.4153 28.6952 18.1273 28.7912L17.8985 28.7992H15.1017C13.7913 28.7992 12.6457 27.9736 12.2585 26.7816L12.1993 26.5672L11.3945 23.1992H21.6073L20.8009 26.5688Z" fill="url(#paint0_radial_562_7292)"/>
<path d="M20.8009 26.5688C20.5049 27.8008 19.4153 28.6952 18.1273 28.7912L17.8985 28.7992H15.1017C13.7913 28.7992 12.6457 27.9736 12.2585 26.7816L12.1993 26.5672L11.3945 23.1992H21.6073L20.8009 26.5688Z" fill="url(#paint1_linear_562_7292)"/>
<path d="M11.3959 23.1992H21.6071L22.3431 20.116C22.3585 20.0543 22.3919 19.9986 22.4391 19.956C24.8615 17.7192 26.0999 15.2152 26.0999 12.4808C26.0999 7.35442 21.8023 3.19922 16.4999 3.19922C11.1975 3.19922 6.8999 7.35282 6.8999 12.4792C6.8999 15.2136 8.1399 17.7176 10.5639 19.9544C10.6119 19.9992 10.6439 20.0526 10.6599 20.1144L11.3959 23.1992Z" fill="url(#paint2_radial_562_7292)"/>
<path d="M11.3959 23.1992H21.6071L22.3431 20.116C22.3585 20.0543 22.3919 19.9986 22.4391 19.956C24.8615 17.7192 26.0999 15.2152 26.0999 12.4808C26.0999 7.35442 21.8023 3.19922 16.4999 3.19922C11.1975 3.19922 6.8999 7.35282 6.8999 12.4792C6.8999 15.2136 8.1399 17.7176 10.5639 19.9544C10.6119 19.9992 10.6439 20.0526 10.6599 20.1144L11.3959 23.1992Z" fill="url(#paint3_radial_562_7292)" fill-opacity="0.2"/>
<path d="M11.5865 23.9994H21.4153L21.7993 22.3994H11.2041L11.5865 23.9994Z" fill="url(#paint4_linear_562_7292)"/>
<path d="M30.9 8.79961C30.9 6.89005 30.1414 5.0587 28.7912 3.70844C27.4409 2.35818 25.6096 1.59961 23.7 1.59961C21.7904 1.59961 19.9591 2.35818 18.6088 3.70844C17.2586 5.0587 16.5 6.89005 16.5 8.79961C16.5 10.7092 17.2586 12.5405 18.6088 13.8908C19.9591 15.241 21.7904 15.9996 23.7 15.9996C25.6096 15.9996 27.4409 15.241 28.7912 13.8908C30.1414 12.5405 30.9 10.7092 30.9 8.79961Z" fill="url(#paint5_linear_562_7292)"/>
<path fill-rule="evenodd" clip-rule="evenodd" d="M27.4661 5.83366C27.5406 5.90798 27.5998 5.99626 27.6401 6.09345C27.6804 6.19064 27.7012 6.29484 27.7012 6.40006C27.7012 6.50529 27.6804 6.60948 27.6401 6.70668C27.5998 6.80387 27.5406 6.89215 27.4661 6.96646L22.6661 11.7665C22.5918 11.841 22.5035 11.9001 22.4064 11.9404C22.3092 11.9807 22.205 12.0015 22.0997 12.0015C21.9945 12.0015 21.8903 11.9807 21.7931 11.9404C21.6959 11.9001 21.6077 11.841 21.5333 11.7665L19.9333 10.1665C19.7831 10.0162 19.6987 9.8125 19.6987 9.60006C19.6987 9.38762 19.7831 9.18388 19.9333 9.03366C20.0836 8.88344 20.2873 8.79905 20.4997 8.79905C20.7122 8.79905 20.9159 8.88344 21.0661 9.03366L22.0997 10.0689L26.3333 5.83366C26.4077 5.75916 26.4959 5.70005 26.5931 5.65972C26.6903 5.61939 26.7945 5.59863 26.8997 5.59863C27.005 5.59863 27.1092 5.61939 27.2064 5.65972C27.3035 5.70005 27.3918 5.75916 27.4661 5.83366Z" fill="url(#paint6_linear_562_7292)"/>
<defs>
<radialGradient id="paint0_radial_562_7292" cx="0" cy="0" r="1" gradientUnits="userSpaceOnUse" gradientTransform="translate(10.1001 5.71282) rotate(73.9841) scale(22.8786 34.8254)">
<stop stop-color="#FFE06B"/>
<stop offset="0.376" stop-color="#FFA43D"/>
<stop offset="1" stop-color="#E67505"/>
</radialGradient>
<linearGradient id="paint1_linear_562_7292" x1="16.5001" y1="23.1992" x2="16.5001" y2="28.7992" gradientUnits="userSpaceOnUse">
<stop stop-color="#D34719"/>
<stop offset="1" stop-color="#D34719" stop-opacity="0"/>
</linearGradient>
<radialGradient id="paint2_radial_562_7292" cx="0" cy="0" r="1" gradientUnits="userSpaceOnUse" gradientTransform="translate(10.0999 5.71282) rotate(73.9841) scale(22.8786 34.8254)">
<stop stop-color="#FFE06B"/>
<stop offset="0.376" stop-color="#FFA43D"/>
<stop offset="1" stop-color="#E67505"/>
</radialGradient>
<radialGradient id="paint3_radial_562_7292" cx="0" cy="0" r="1" gradientUnits="userSpaceOnUse" gradientTransform="translate(23.6999 9.44882) rotate(180) scale(8.8 19.8008)">
<stop offset="0.165" stop-color="#741C06"/>
<stop offset="0.777" stop-color="#741C06" stop-opacity="0"/>
</radialGradient>
<linearGradient id="paint4_linear_562_7292" x1="15.6633" y1="23.0346" x2="16.8697" y2="26.233" gradientUnits="userSpaceOnUse">
<stop stop-color="#FFC7A3"/>
<stop offset="1" stop-color="#FF9C70"/>
</linearGradient>
<linearGradient id="paint5_linear_562_7292" x1="17.0136" y1="4.30041" x2="26.9512" y2="14.6252" gradientUnits="userSpaceOnUse">
<stop stop-color="#52D17C"/>
<stop offset="1" stop-color="#22918B"/>
</linearGradient>
<linearGradient id="paint6_linear_562_7292" x1="21.2005" y1="6.25286" x2="22.8133" y2="13.3761" gradientUnits="userSpaceOnUse">
<stop stop-color="white"/>
<stop offset="1" stop-color="#E3FFD9"/>
</linearGradient>
</defs>
</svg>
