<?xml version="1.0" encoding="UTF-8"?>
<svg width="20" height="20" viewBox="0 0 20 20" fill="none" xmlns="http://www.w3.org/2000/svg">
<path opacity="0.5" d="M13.9625 1.66699H6.0375C5.07167 1.66699 4.58917 1.66699 4.19917 1.80283C3.83161 1.93343 3.49904 2.14688 3.22722 2.42665C2.9554 2.70641 2.75162 3.04499 2.63167 3.41616C2.5 3.81783 2.5 4.31449 2.5 5.30866V16.9787C2.5 17.6937 3.32083 18.0737 3.84 17.5987C3.98566 17.4641 4.17668 17.3893 4.375 17.3893C4.57332 17.3893 4.76434 17.4641 4.91 17.5987L5.3125 17.967C5.56767 18.203 5.90245 18.334 6.25 18.334C6.59755 18.334 6.93233 18.203 7.1875 17.967C7.44267 17.731 7.77745 17.6 8.125 17.6C8.47255 17.6 8.80733 17.731 9.0625 17.967C9.31767 18.203 9.65245 18.334 10 18.334C10.3476 18.334 10.6823 18.203 10.9375 17.967C11.1927 17.731 11.5274 17.6 11.875 17.6C12.2226 17.6 12.5573 17.731 12.8125 17.967C13.0677 18.203 13.4024 18.334 13.75 18.334C14.0976 18.334 14.4323 18.203 14.6875 17.967L15.09 17.5987C15.2357 17.4641 15.4267 17.3893 15.625 17.3893C15.8233 17.3893 16.0143 17.4641 16.16 17.5987C16.6792 18.0737 17.5 17.6937 17.5 16.9787V5.30866C17.5 4.31449 17.5 3.81699 17.3683 3.41699C17.2485 3.04567 17.0448 2.70693 16.7729 2.42701C16.5011 2.14709 16.1685 1.93351 15.8008 1.80283C15.4108 1.66699 14.9283 1.66699 13.9625 1.66699Z" stroke="#2563EB"/>
<path d="M8.75001 9.16667H14.1667M5.83334 9.16667H6.25001M5.83334 6.25H6.25001M5.83334 12.0833H6.25001M8.75001 6.25H14.1667M8.75001 12.0833H14.1667" stroke="#2563EB" stroke-linecap="round"/>
</svg>
