<?xml version="1.0" encoding="UTF-8"?>
<svg width="24" height="24" viewBox="0 0 24 24" fill="none" xmlns="http://www.w3.org/2000/svg">
  <path d="M15.75 0C11.19 0 7.5 1.32 7.5 3V6C3 6.15 0 7.41 0 9V18C0 19.635 3.69 21 8.25 21H8.3505C9.4485 20.999 10.525 20.919 11.58 20.76C12.627 22.7175 14.721 23.997 17.115 23.997C18.5538 23.9974 19.9529 23.5255 21.0975 22.6538C22.2422 21.782 23.069 20.5586 23.451 19.1715C23.7645 18.873 23.967 18.5085 24.0015 18.096V3C24.0015 1.32 20.3115 0 15.7515 0H15.75ZM8.25 7.5C12 7.5 15 8.175 15 9C15 9.825 12 10.5 8.25 10.5C4.5 10.5 1.5 9.825 1.5 9C1.5 8.175 4.5 7.5 8.25 7.5ZM8.25 19.5C4.185 19.5 1.875 18.435 1.5 18V16.8C3.64346 17.6999 5.96094 18.1094 8.283 17.9985C9.045 17.997 9.828 17.9535 10.599 17.871C10.5345 18.4275 10.632 18.939 10.7835 19.4265C10.1055 19.458 9.333 19.503 8.5515 19.503L8.235 19.5H8.25ZM10.605 16.365C9.9045 16.4505 9.093 16.5 8.271 16.5H8.25C4.1865 16.5 1.8765 15.435 1.5015 15V13.74C3.63829 14.6601 5.95381 15.0906 8.2785 15C9.23018 14.9983 10.1807 14.9342 11.124 14.808C10.8285 15.267 10.6875 15.789 10.611 16.3305L10.605 16.365ZM8.25 13.5C4.185 13.5 1.875 12.435 1.5 12V10.65C3.63679 11.5701 5.95231 12.0006 8.277 11.91C10.6206 11.9881 12.9523 11.5444 15.1035 10.611L15.0015 11.16C13.8756 11.5389 12.8728 12.2147 12.099 13.116C10.971 13.3635 9.6825 13.5 8.3625 13.5H8.247H8.25ZM17.115 22.5C15.7584 22.5 14.4574 21.9611 13.4981 21.0019C12.5389 20.0426 12 18.7416 12 17.385C12 16.0284 12.5389 14.7274 13.4981 13.7681C14.4574 12.8089 15.7584 12.27 17.115 12.27C18.4716 12.27 19.7726 12.8089 20.7318 13.7681C21.6911 14.7274 22.23 16.0284 22.23 17.385C22.23 18.7416 21.6911 20.0426 20.7318 21.0019C19.7726 21.9611 18.4716 22.5 17.115 22.5ZM22.5 12C22.2375 12.2505 21.9225 12.45 21.5745 12.579C21.1425 12.213 20.6745 11.889 20.1675 11.628C20.9958 11.4136 21.7974 11.1067 22.557 10.713L22.5 12ZM22.5 9C22.14 9.465 20.085 10.41 16.5 10.5V9H16.5165C18.6103 9.00149 20.6812 8.56462 22.596 7.7175L22.5 9ZM22.5 6C22.125 6.495 19.815 7.5 15.75 7.5H15.405C13.4697 6.5091 11.3257 5.99482 9.1515 6H9V4.65C11.1368 5.57008 13.4523 6.00059 15.777 5.91C18.1206 5.98812 20.4523 5.54443 22.6035 4.611L22.5 6ZM15.75 4.5C12 4.5 9 3.825 9 3C9 2.175 12 1.5 15.75 1.5C19.5 1.5 22.5 2.175 22.5 3C22.5 3.825 19.5 4.5 15.75 4.5Z" fill="#8B5CF6"/>
  <path d="M15.75 16.5H16.5V21H18V13.5H17.25L15.75 16.5Z" fill="#8B5CF6"/>
</svg> 