<?xml version="1.0" encoding="UTF-8"?>
<svg width="33" height="32" viewBox="0 0 33 32" fill="none" xmlns="http://www.w3.org/2000/svg">
<g clip-path="url(#clip0_562_6269)">
<mask id="mask0_562_6269" style="mask-type:luminance" maskUnits="userSpaceOnUse" x="0" y="0" width="33" height="32">
<path d="M0.5 0H32.5V32H0.5V0Z" fill="white"/>
</mask>
<g mask="url(#mask0_562_6269)">
<path d="M11.0818 13.7186C12.2823 13.2767 13.4495 14.4439 13.0076 15.6444L10.3888 22.7588C10.1367 23.4438 9.25938 23.6366 8.74325 23.1204L3.60576 17.9829C3.08963 17.4668 3.28244 16.5895 3.96742 16.3374L11.0818 13.7186Z" fill="url(#paint0_linear_562_6269)"/>
<path d="M11.0818 13.7186C12.2823 13.2767 13.4495 14.4439 13.0076 15.6444L10.3888 22.7588C10.1367 23.4438 9.25938 23.6366 8.74325 23.1204L3.60576 17.9829C3.08963 17.4668 3.28244 16.5895 3.96742 16.3374L11.0818 13.7186Z" fill="url(#paint1_radial_562_6269)"/>
<path d="M11.0818 13.7186C12.2823 13.2767 13.4495 14.4439 13.0076 15.6444L10.3888 22.7588C10.1367 23.4438 9.25938 23.6366 8.74325 23.1204L3.60576 17.9829C3.08963 17.4668 3.28244 16.5895 3.96742 16.3374L11.0818 13.7186Z" fill="url(#paint2_linear_562_6269)"/>
<path d="M17.0818 19.7186C18.2823 19.2767 19.4495 20.4439 19.0076 21.6444L16.3888 28.7588C16.1367 29.4438 15.2594 29.6366 14.7433 29.1204L9.60576 23.9829C9.08963 23.4668 9.28244 22.5895 9.96742 22.3374L17.0818 19.7186Z" fill="url(#paint3_linear_562_6269)"/>
<path d="M17.0818 19.7186C18.2823 19.2767 19.4495 20.4439 19.0076 21.6444L16.3888 28.7588C16.1367 29.4438 15.2594 29.6366 14.7433 29.1204L9.60576 23.9829C9.08963 23.4668 9.28244 22.5895 9.96742 22.3374L17.0818 19.7186Z" fill="url(#paint4_radial_562_6269)"/>
<path d="M17.0818 19.7186C18.2823 19.2767 19.4495 20.4439 19.0076 21.6444L16.3888 28.7588C16.1367 29.4438 15.2594 29.6366 14.7433 29.1204L9.60576 23.9829C9.08963 23.4668 9.28244 22.5895 9.96742 22.3374L17.0818 19.7186Z" fill="url(#paint5_radial_562_6269)"/>
<path d="M22.8992 3.55103C22.9551 3.52827 23.019 3.54155 23.0616 3.58443L28.9475 9.51472C28.9898 9.55733 29.0027 9.62085 28.9801 9.67645C27.5707 13.1359 25.6275 16.8159 23.0256 19.4179C20.4918 21.9516 16.2061 24.1112 12.3364 25.6992L6.84473 20.2076C8.43275 16.3379 10.5923 12.0522 13.1261 9.51837C15.736 6.90849 19.4305 4.96144 22.8992 3.55103Z" fill="url(#paint6_linear_562_6269)"/>
<path d="M22.8992 3.55103C22.9551 3.52827 23.019 3.54155 23.0616 3.58443L28.9475 9.51472C28.9898 9.55733 29.0027 9.62085 28.9801 9.67645C27.5707 13.1359 25.6275 16.8159 23.0256 19.4179C20.4918 21.9516 16.2061 24.1112 12.3364 25.6992L6.84473 20.2076C8.43275 16.3379 10.5923 12.0522 13.1261 9.51837C15.736 6.90849 19.4305 4.96144 22.8992 3.55103Z" fill="url(#paint7_radial_562_6269)"/>
<path d="M22.8992 3.55103C22.9551 3.52827 23.019 3.54155 23.0616 3.58443L28.9475 9.51472C28.9898 9.55733 29.0027 9.62085 28.9801 9.67645C27.5707 13.1359 25.6275 16.8159 23.0256 19.4179C20.4918 21.9516 16.2061 24.1112 12.3364 25.6992L6.84473 20.2076C8.43275 16.3379 10.5923 12.0522 13.1261 9.51837C15.736 6.90849 19.4305 4.96144 22.8992 3.55103Z" fill="url(#paint8_radial_562_6269)"/>
<path d="M22.8992 3.55103C22.9551 3.52827 23.019 3.54155 23.0616 3.58443L28.9475 9.51472C28.9898 9.55733 29.0027 9.62085 28.9801 9.67645C27.5707 13.1359 25.6275 16.8159 23.0256 19.4179C20.4918 21.9516 16.2061 24.1112 12.3364 25.6992L6.84473 20.2076C8.43275 16.3379 10.5923 12.0522 13.1261 9.51837C15.736 6.90849 19.4305 4.96144 22.8992 3.55103Z" fill="url(#paint9_radial_562_6269)"/>
<path d="M22.8992 3.55103C22.9551 3.52827 23.019 3.54155 23.0616 3.58443L28.9475 9.51472C28.9898 9.55733 29.0027 9.62085 28.9801 9.67645C27.5707 13.1359 25.6275 16.8159 23.0256 19.4179C20.4918 21.9516 16.2061 24.1112 12.3364 25.6992L6.84473 20.2076C8.43275 16.3379 10.5923 12.0522 13.1261 9.51837C15.736 6.90849 19.4305 4.96144 22.8992 3.55103Z" fill="url(#paint10_radial_562_6269)"/>
<path d="M25 11.0625C25 12.9178 23.496 14.4219 21.6406 14.4219C19.7853 14.4219 18.2812 12.9178 18.2812 11.0625C18.2812 9.20717 19.7853 7.70312 21.6406 7.70312C23.496 7.70312 25 9.20717 25 11.0625Z" fill="url(#paint11_linear_562_6269)"/>
<path d="M25 11.0625C25 12.9178 23.496 14.4219 21.6406 14.4219C19.7853 14.4219 18.2812 12.9178 18.2812 11.0625C18.2812 9.20717 19.7853 7.70312 21.6406 7.70312C23.496 7.70312 25 9.20717 25 11.0625Z" fill="url(#paint12_radial_562_6269)"/>
<path d="M23.9669 11.063C23.9669 12.3475 22.9256 13.3887 21.6411 13.3887C20.3567 13.3887 19.3154 12.3475 19.3154 11.063C19.3154 9.77857 20.3567 8.7373 21.6411 8.7373C22.9256 8.7373 23.9669 9.77857 23.9669 11.063Z" fill="url(#paint13_radial_562_6269)"/>
<path d="M2.92369 29.5327C2.21658 28.8256 2.50026 23.9218 5.00024 22.9218C5.00024 22.9218 7.50024 21.9218 9.11125 23.5224C10.7222 25.123 10.0002 26.9218 10.0002 26.9218C9.29315 29.0431 6.2828 29.8863 5.92926 29.5328C5.734 29.3375 6.08562 28.982 5.92927 28.8257C5.77292 28.6693 5.53151 28.8478 4.86861 29.1792C4.39721 29.4149 3.20653 29.8156 2.92369 29.5327Z" fill="url(#paint14_radial_562_6269)"/>
<path d="M2.92369 29.5327C2.21658 28.8256 2.50026 23.9218 5.00024 22.9218C5.00024 22.9218 7.50024 21.9218 9.11125 23.5224C10.7222 25.123 10.0002 26.9218 10.0002 26.9218C9.29315 29.0431 6.2828 29.8863 5.92926 29.5328C5.734 29.3375 6.08562 28.982 5.92927 28.8257C5.77292 28.6693 5.53151 28.8478 4.86861 29.1792C4.39721 29.4149 3.20653 29.8156 2.92369 29.5327Z" fill="url(#paint15_radial_562_6269)"/>
<path d="M6.56043 20.9823C7.14622 20.3965 8.09597 20.3965 8.68176 20.9823L12.2173 24.5178C12.8031 25.1036 12.8031 26.0534 12.2173 26.6392C11.6315 27.225 10.6818 27.225 10.096 26.6392L6.56043 23.1036C5.97465 22.5178 5.97465 21.5681 6.56043 20.9823Z" fill="url(#paint16_linear_562_6269)"/>
<path d="M6.56043 20.9823C7.14622 20.3965 8.09597 20.3965 8.68176 20.9823L12.2173 24.5178C12.8031 25.1036 12.8031 26.0534 12.2173 26.6392C11.6315 27.225 10.6818 27.225 10.096 26.6392L6.56043 23.1036C5.97465 22.5178 5.97465 21.5681 6.56043 20.9823Z" fill="url(#paint17_radial_562_6269)"/>
<path d="M6.56043 20.9823C7.14622 20.3965 8.09597 20.3965 8.68176 20.9823L12.2173 24.5178C12.8031 25.1036 12.8031 26.0534 12.2173 26.6392C11.6315 27.225 10.6818 27.225 10.096 26.6392L6.56043 23.1036C5.97465 22.5178 5.97465 21.5681 6.56043 20.9823Z" fill="url(#paint18_radial_562_6269)"/>
<path d="M29.6724 2.87182C28.7253 1.92473 27.0644 2.03194 25.854 2.44757C24.985 2.74598 24.0717 3.08069 23.1398 3.45418C23.0734 3.48077 23.0558 3.56644 23.1062 3.61717L28.9152 9.46604C28.9657 9.51695 29.0519 9.49958 29.0786 9.43299C29.4567 8.49118 29.7952 7.5681 30.0967 6.69021C30.5067 5.49602 30.8365 4.03594 29.6724 2.87182Z" fill="url(#paint19_linear_562_6269)"/>
<path d="M29.6724 2.87182C28.7253 1.92473 27.0644 2.03194 25.854 2.44757C24.985 2.74598 24.0717 3.08069 23.1398 3.45418C23.0734 3.48077 23.0558 3.56644 23.1062 3.61717L28.9152 9.46604C28.9657 9.51695 29.0519 9.49958 29.0786 9.43299C29.4567 8.49118 29.7952 7.5681 30.0967 6.69021C30.5067 5.49602 30.8365 4.03594 29.6724 2.87182Z" fill="url(#paint20_radial_562_6269)"/>
<path d="M29.6724 2.87182C28.7253 1.92473 27.0644 2.03194 25.854 2.44757C24.985 2.74598 24.0717 3.08069 23.1398 3.45418C23.0734 3.48077 23.0558 3.56644 23.1062 3.61717L28.9152 9.46604C28.9657 9.51695 29.0519 9.49958 29.0786 9.43299C29.4567 8.49118 29.7952 7.5681 30.0967 6.69021C30.5067 5.49602 30.8365 4.03594 29.6724 2.87182Z" fill="url(#paint21_linear_562_6269)"/>
<path d="M14.0818 16.7186C15.2823 16.2767 16.4495 17.4439 16.0076 18.6444L13.3888 25.7588C13.1367 26.4438 12.2594 26.6366 11.7433 26.1204L6.60576 20.9829C6.08963 20.4668 6.28244 19.5895 6.96742 19.3374L14.0818 16.7186Z" fill="url(#paint22_linear_562_6269)"/>
<path d="M14.0818 16.7186C15.2823 16.2767 16.4495 17.4439 16.0076 18.6444L13.3888 25.7588C13.1367 26.4438 12.2594 26.6366 11.7433 26.1204L6.60576 20.9829C6.08963 20.4668 6.28244 19.5895 6.96742 19.3374L14.0818 16.7186Z" fill="url(#paint23_radial_562_6269)"/>
<path d="M14.0818 16.7186C15.2823 16.2767 16.4495 17.4439 16.0076 18.6444L13.3888 25.7588C13.1367 26.4438 12.2594 26.6366 11.7433 26.1204L6.60576 20.9829C6.08963 20.4668 6.28244 19.5895 6.96742 19.3374L14.0818 16.7186Z" fill="url(#paint24_radial_562_6269)"/>
<path d="M14.0818 16.7186C15.2823 16.2767 16.4495 17.4439 16.0076 18.6444L13.3888 25.7588C13.1367 26.4438 12.2594 26.6366 11.7433 26.1204L6.60576 20.9829C6.08963 20.4668 6.28244 19.5895 6.96742 19.3374L14.0818 16.7186Z" fill="url(#paint25_radial_562_6269)"/>
<path d="M9.70508 22.0469L15.3301 17.6406L11.7051 24.0781L9.70508 22.0469Z" fill="url(#paint26_linear_562_6269)"/>
</g>
</g>
<defs>
<linearGradient id="paint0_linear_562_6269" x1="8.61117" y1="17.3086" x2="3.61117" y2="16.485" gradientUnits="userSpaceOnUse">
<stop stop-color="#EE2452"/>
<stop offset="1" stop-color="#F63E7A"/>
</linearGradient>
<radialGradient id="paint1_radial_562_6269" cx="0" cy="0" r="1" gradientUnits="userSpaceOnUse" gradientTransform="translate(2.89782 17.0638) rotate(-19.9576) scale(8.00168 1.36045)">
<stop offset="0.163866" stop-color="#FF8DB0"/>
<stop offset="1" stop-color="#FF8DB0" stop-opacity="0"/>
</radialGradient>
<linearGradient id="paint2_linear_562_6269" x1="5.40503" y1="19.7339" x2="6.2203" y2="18.939" gradientUnits="userSpaceOnUse">
<stop offset="0.491189" stop-color="#DD467C"/>
<stop offset="1" stop-color="#DD467C" stop-opacity="0"/>
</linearGradient>
<linearGradient id="paint3_linear_562_6269" x1="18.3924" y1="21.6725" x2="12.1745" y2="26.5517" gradientUnits="userSpaceOnUse">
<stop stop-color="#F83267"/>
<stop offset="1" stop-color="#FF3190"/>
</linearGradient>
<radialGradient id="paint4_radial_562_6269" cx="0" cy="0" r="1" gradientUnits="userSpaceOnUse" gradientTransform="translate(15.0799 22.2037) rotate(86.482) scale(7.63907 6.58606)">
<stop offset="0.756562" stop-color="#E76CBE" stop-opacity="0"/>
<stop offset="0.951296" stop-color="#E76CBE"/>
</radialGradient>
<radialGradient id="paint5_radial_562_6269" cx="0" cy="0" r="1" gradientUnits="userSpaceOnUse" gradientTransform="translate(13.9549 26.235) rotate(-57.3464) scale(5.27051 2.31507)">
<stop stop-color="#FF5898"/>
<stop offset="1" stop-color="#FF5898" stop-opacity="0"/>
</radialGradient>
<linearGradient id="paint6_linear_562_6269" x1="13.986" y1="8.6718" x2="22.7985" y2="17.5468" gradientUnits="userSpaceOnUse">
<stop stop-color="#CCBBC0"/>
<stop offset="1" stop-color="#EAD2EC"/>
</linearGradient>
<radialGradient id="paint7_radial_562_6269" cx="0" cy="0" r="1" gradientUnits="userSpaceOnUse" gradientTransform="translate(24.4695 21.5772) rotate(-142.447) scale(16.6769 31.3483)">
<stop offset="0.811143" stop-color="#E7E5E5" stop-opacity="0"/>
<stop offset="1" stop-color="#E7E5E5"/>
</radialGradient>
<radialGradient id="paint8_radial_562_6269" cx="0" cy="0" r="1" gradientUnits="userSpaceOnUse" gradientTransform="translate(9.68147 21.3097) rotate(-56.9293) scale(9.80381 4.6077)">
<stop offset="0.281006" stop-color="#B5A3A5"/>
<stop offset="1" stop-color="#B5A3A5" stop-opacity="0"/>
</radialGradient>
<radialGradient id="paint9_radial_562_6269" cx="0" cy="0" r="1" gradientUnits="userSpaceOnUse" gradientTransform="translate(6.84473 20.0911) rotate(-73.625) scale(8.69119 1.4727)">
<stop offset="0.207885" stop-color="#B28F96"/>
<stop offset="1" stop-color="#B28F96" stop-opacity="0"/>
</radialGradient>
<radialGradient id="paint10_radial_562_6269" cx="0" cy="0" r="1" gradientUnits="userSpaceOnUse" gradientTransform="translate(27.611 7.10931) rotate(137.284) scale(13.175 4.09069)">
<stop stop-color="#FAECF1"/>
<stop offset="1" stop-color="#FAECF1" stop-opacity="0"/>
</radialGradient>
<linearGradient id="paint11_linear_562_6269" x1="18.2812" y1="10.4914" x2="25" y2="11.0625" gradientUnits="userSpaceOnUse">
<stop stop-color="#A796A0"/>
<stop offset="1" stop-color="#A5959F"/>
</linearGradient>
<radialGradient id="paint12_radial_562_6269" cx="0" cy="0" r="1" gradientUnits="userSpaceOnUse" gradientTransform="translate(21.6406 11.0625) rotate(90) scale(3.35938)">
<stop offset="0.586538" stop-color="#93859B"/>
<stop offset="1" stop-color="#93859B" stop-opacity="0"/>
</radialGradient>
<radialGradient id="paint13_radial_562_6269" cx="0" cy="0" r="1" gradientUnits="userSpaceOnUse" gradientTransform="translate(21.6411 13.3887) rotate(-90) scale(4.84559 4.45626)">
<stop stop-color="#72CDFF"/>
<stop offset="0.738019" stop-color="#66ACFF"/>
<stop offset="1" stop-color="#3B57F4"/>
</radialGradient>
<radialGradient id="paint14_radial_562_6269" cx="0" cy="0" r="1" gradientUnits="userSpaceOnUse" gradientTransform="translate(8.69138 24.2459) rotate(135) scale(5.80645 4.56401)">
<stop stop-color="#D46213"/>
<stop offset="1" stop-color="#FF9542"/>
</radialGradient>
<radialGradient id="paint15_radial_562_6269" cx="0" cy="0" r="1" gradientUnits="userSpaceOnUse" gradientTransform="translate(8.80386 28.9704) rotate(-131.186) scale(7.17453 7.56076)">
<stop offset="0.870944" stop-color="#FFC484" stop-opacity="0"/>
<stop offset="1" stop-color="#FFC484"/>
</radialGradient>
<linearGradient id="paint16_linear_562_6269" x1="6.29818" y1="21.9529" x2="11.7982" y2="27.3592" gradientUnits="userSpaceOnUse">
<stop stop-color="#452860"/>
<stop offset="1" stop-color="#51509F"/>
</linearGradient>
<radialGradient id="paint17_radial_562_6269" cx="0" cy="0" r="1" gradientUnits="userSpaceOnUse" gradientTransform="translate(7.32943 21.4529) rotate(77.8285) scale(1.6304 1.4405)">
<stop stop-color="#8E839A"/>
<stop offset="1" stop-color="#8E839A" stop-opacity="0"/>
</radialGradient>
<radialGradient id="paint18_radial_562_6269" cx="0" cy="0" r="1" gradientUnits="userSpaceOnUse" gradientTransform="translate(7.70665 22.4178) rotate(47.9357) scale(6.2123 3.25637)">
<stop offset="0.860492" stop-color="#6175B9" stop-opacity="0"/>
<stop offset="1" stop-color="#6175B9"/>
</radialGradient>
<linearGradient id="paint19_linear_562_6269" x1="29.6768" y1="2.8762" x2="26.0007" y2="6.55229" gradientUnits="userSpaceOnUse">
<stop stop-color="#FF3745"/>
<stop offset="1" stop-color="#ED224B"/>
</linearGradient>
<radialGradient id="paint20_radial_562_6269" cx="0" cy="0" r="1" gradientUnits="userSpaceOnUse" gradientTransform="translate(29.2386 4.34776) rotate(135) scale(8.24677 1.9797)">
<stop offset="0.189394" stop-color="#FF5971"/>
<stop offset="1" stop-color="#FF5971" stop-opacity="0"/>
</radialGradient>
<linearGradient id="paint21_linear_562_6269" x1="26.3219" y1="6.7971" x2="26.6891" y2="6.41429" gradientUnits="userSpaceOnUse">
<stop stop-color="#D2575E"/>
<stop offset="1" stop-color="#F93251" stop-opacity="0"/>
</linearGradient>
<linearGradient id="paint22_linear_562_6269" x1="15.6606" y1="17.0656" x2="9.1745" y2="23.5517" gradientUnits="userSpaceOnUse">
<stop stop-color="#FF2644"/>
<stop offset="1" stop-color="#FF2982"/>
</linearGradient>
<radialGradient id="paint23_radial_562_6269" cx="0" cy="0" r="1" gradientUnits="userSpaceOnUse" gradientTransform="translate(6.73617 19.4225) rotate(-20.8651) scale(7.45782 1.95239)">
<stop stop-color="#FF95AF"/>
<stop offset="1" stop-color="#FF95AF" stop-opacity="0"/>
</radialGradient>
<radialGradient id="paint24_radial_562_6269" cx="0" cy="0" r="1" gradientUnits="userSpaceOnUse" gradientTransform="translate(5.89782 20.3086) rotate(44.7044) scale(4.61021 1.36182)">
<stop offset="0.381871" stop-color="#E14678"/>
<stop offset="1" stop-color="#E14678" stop-opacity="0"/>
</radialGradient>
<radialGradient id="paint25_radial_562_6269" cx="0" cy="0" r="1" gradientUnits="userSpaceOnUse" gradientTransform="translate(12.0799 19.1412) rotate(84.6743) scale(7.40698 7.89321)">
<stop offset="0.831791" stop-color="#E67BC7" stop-opacity="0"/>
<stop offset="1" stop-color="#E67BC7"/>
</radialGradient>
<linearGradient id="paint26_linear_562_6269" x1="14.4863" y1="18.1094" x2="10.3613" y2="22.4219" gradientUnits="userSpaceOnUse">
<stop stop-color="#FF5970"/>
<stop offset="1" stop-color="#FF5794"/>
</linearGradient>
<clipPath id="clip0_562_6269">
<rect width="32" height="32" fill="white" transform="translate(0.5)"/>
</clipPath>
</defs>
</svg>
