<?xml version="1.0" encoding="UTF-8"?>
<svg width="20" height="20" viewBox="0 0 20 20" fill="none" xmlns="http://www.w3.org/2000/svg">
<path d="M16.655 7.41291L12.4167 11.6354L13.2992 12.5212L17.5383 8.30041L16.655 7.41291ZM9.31583 11.6346L8.31999 10.6429L7.43749 11.5287L8.43333 12.5204L9.31583 11.6346ZM8.31999 7.56291L12.5583 3.34208L11.6767 2.45625L7.43749 6.67708L8.31999 7.56291ZM15.105 2.29208H15.5175V1.04208H15.105V2.29208ZM17.7083 4.47125V4.88208H18.9583V4.47125H17.7083ZM15.5175 2.29208C16.1992 2.29208 16.6467 2.29375 16.9792 2.33791C17.2942 2.37958 17.4092 2.45041 17.48 2.52125L18.3617 1.63458C18.02 1.29458 17.5975 1.15958 17.145 1.09875C16.7108 1.04041 16.1633 1.04208 15.5175 1.04208V2.29208ZM18.9583 4.47125C18.9583 3.82791 18.96 3.28291 18.9008 2.84958C18.84 2.39791 18.7042 1.97541 18.3617 1.63458L17.48 2.52041C17.55 2.59041 17.62 2.70375 17.6625 3.01625C17.7067 3.34708 17.7083 3.79291 17.7083 4.47125H18.9583ZM8.31999 10.6429C7.83833 10.1637 7.52166 9.84708 7.31916 9.58208C7.12666 9.33125 7.09583 9.20125 7.09583 9.10291H5.84583C5.84583 9.58625 6.04916 9.98041 6.32666 10.3421C6.59333 10.6896 6.98083 11.0737 7.43749 11.5287L8.31999 10.6429ZM8.43333 12.5204C8.88999 12.9754 9.27666 13.3621 9.62499 13.6271C9.98833 13.9029 10.3833 14.1046 10.8658 14.1046V12.8546C10.765 12.8546 10.6333 12.8229 10.3817 12.6312C10.115 12.4296 9.79833 12.1146 9.31583 11.6346L8.43333 12.5204ZM17.5383 8.30041C18.1125 7.72875 18.5292 7.32708 18.75 6.79875L17.5958 6.31875C17.4942 6.56375 17.3017 6.77041 16.655 7.41458L17.5383 8.30041ZM17.7083 4.88291C17.7083 5.79375 17.6975 6.07458 17.5958 6.31875L18.75 6.79875C18.9692 6.27041 18.9583 5.69125 18.9583 4.88291H17.7083ZM12.5583 3.34208C13.205 2.69791 13.4133 2.50708 13.66 2.40458L13.1833 1.25041C12.6533 1.46875 12.2508 1.88458 11.6767 2.45625L12.5583 3.34208ZM15.105 1.04208C14.2925 1.04208 13.7133 1.03125 13.1833 1.24958L13.66 2.40458C13.9067 2.30291 14.1908 2.29208 15.105 2.29208V1.04208ZM12.4158 11.6346C12.045 12.0046 11.7683 12.2796 11.5308 12.4846C11.2933 12.6896 11.1392 12.7829 11.0267 12.8246L11.4575 13.9979C11.7817 13.8787 12.07 13.6696 12.3475 13.4312C12.6258 13.1896 12.9383 12.8787 13.2975 12.5204L12.4158 11.6346ZM11.0267 12.8246C10.9756 12.8451 10.9209 12.8553 10.8658 12.8546V14.1046C11.0714 14.104 11.2686 14.0685 11.4575 13.9979L11.0267 12.8246ZM7.43749 6.67708C7.08666 7.02708 6.78083 7.33125 6.54249 7.60291C6.30499 7.87291 6.09749 8.15291 5.97249 8.46291L7.13166 8.92958C7.17833 8.81458 7.27666 8.66125 7.48166 8.42708C7.68583 8.19458 7.95749 7.92375 8.31999 7.56291L7.43749 6.67708ZM5.97249 8.46291C5.88852 8.66582 5.84548 8.88332 5.84583 9.10291H7.09583C7.09583 9.04875 7.10499 8.99458 7.13166 8.92958L5.97249 8.46291Z" fill="#16A34A"/>
<path opacity="0.5" d="M6.42417 8.5698L6.86583 8.1273V8.12563L6.42417 8.5698ZM9.53167 5.66313C9.6007 5.70978 9.67837 5.74215 9.7601 5.75835C9.84183 5.77455 9.92597 5.77424 10.0076 5.75744C10.0892 5.74065 10.1666 5.70771 10.2353 5.66055C10.304 5.6134 10.3626 5.55299 10.4076 5.48287C10.4526 5.41275 10.4831 5.33434 10.4974 5.25225C10.5116 5.17016 10.5093 5.08605 10.4906 5.00486C10.4719 4.92367 10.4371 4.84704 10.3884 4.77948C10.3396 4.71193 10.2778 4.6548 10.2067 4.61146L9.53167 5.66313ZM11.445 13.6165L11.0033 14.0581L11.0333 14.0865L11.445 13.6165ZM15.3725 9.75646C15.2803 9.6222 15.1393 9.52925 14.9795 9.49741C14.8198 9.46558 14.6539 9.49736 14.5172 9.58601C14.3806 9.67465 14.2839 9.81315 14.2479 9.972C14.2118 10.1308 14.2392 10.2975 14.3242 10.4365L15.3725 9.75646ZM11.8233 13.9481L12.265 13.5056L12.2508 13.4915L12.2358 13.4781L11.8233 13.9481ZM11.6833 12.9706C11.6256 12.911 11.5567 12.8634 11.4804 12.8307C11.4041 12.7979 11.3221 12.7807 11.2391 12.7801C11.1561 12.7794 11.0738 12.7952 10.997 12.8267C10.9202 12.8582 10.8505 12.9046 10.7918 12.9633C10.7332 13.022 10.6868 13.0918 10.6554 13.1686C10.624 13.2455 10.6083 13.3278 10.609 13.4108C10.6098 13.4938 10.627 13.5758 10.6598 13.652C10.6926 13.7282 10.7403 13.7972 10.8 13.8548L11.6833 12.9706ZM6.10917 9.1398C6.2271 9.25359 6.385 9.31651 6.54888 9.31501C6.71275 9.31351 6.86948 9.24771 6.9853 9.13177C7.10113 9.01584 7.16678 8.85905 7.16813 8.69517C7.16948 8.5313 7.1064 8.37345 6.9925 8.25563L6.10917 9.1398ZM10.2067 4.61146L9.75 4.3173L9.075 5.36896L9.53083 5.6623L10.2067 4.61146ZM9.75 4.3173C9.30083 4.02813 8.93417 3.7923 8.6175 3.62146C8.29333 3.4473 7.98417 3.32146 7.64083 3.2698L7.4575 4.50646C7.60417 4.52813 7.76917 4.5848 8.025 4.72313C8.28917 4.8648 8.60833 5.0698 9.075 5.36896L9.75 4.3173ZM4.4375 6.4723C4.84583 6.06563 5.2825 5.63063 5.67417 5.27396C5.87 5.09563 6.0475 4.94313 6.19917 4.82646C6.35917 4.70313 6.455 4.64896 6.49333 4.6323L6.015 3.4773C5.80784 3.57228 5.61329 3.69265 5.43583 3.83563C5.24667 3.9823 5.04083 4.16063 4.8325 4.3498C4.39802 4.75271 3.97237 5.16503 3.55583 5.58646L4.4375 6.4723ZM7.64167 3.27063C7.09073 3.19143 6.52863 3.26285 6.015 3.4773L6.49333 4.6323C6.79812 4.50432 7.13184 4.46113 7.45917 4.5073L7.64167 3.27063ZM3.955 7.5173L4.22917 7.62563L4.68917 6.46396L4.41417 6.35563L3.955 7.5173ZM5.28667 8.31896L5.98333 9.0123L6.865 8.12563L6.16833 7.4323L5.28667 8.31896ZM4.22917 7.62563L4.31083 7.65813L4.78583 6.50146L4.68917 6.46396L4.22917 7.62563ZM6.16833 7.4323L6.09417 7.35896L5.22417 8.25646L5.28667 8.31813L6.16833 7.4323ZM4.31 7.6573C4.65083 7.79813 4.96083 8.00063 5.22417 8.25646L6.09417 7.35896C5.7161 6.99309 5.27217 6.70213 4.78583 6.50146L4.31 7.6573ZM3.55583 5.58646C3.41724 5.72455 3.3152 5.89414 3.25894 6.08152C3.20268 6.2689 3.19396 6.46734 3.23357 6.65893C3.27318 6.85052 3.35987 7.02924 3.48582 7.17895C3.61177 7.32866 3.77301 7.44465 3.955 7.51646L4.415 6.35396C4.42579 6.35856 4.43529 6.36574 4.44265 6.37487C4.45002 6.384 4.45504 6.3948 4.45726 6.40632C4.45948 6.41783 4.45884 6.42972 4.4554 6.44094C4.45195 6.45215 4.4458 6.46235 4.4375 6.47063L3.55583 5.58646ZM14.325 10.4356L14.6192 10.8898L15.6683 10.2098L15.3733 9.7548L14.325 10.4356ZM13.5125 15.5006L13.4517 15.5606L14.3333 16.4465L14.3942 16.3856L13.5125 15.5006ZM14.6192 10.8898C14.9192 11.3531 15.1258 11.6715 15.2683 11.934C15.4067 12.1881 15.4625 12.3523 15.485 12.4965L16.7208 12.3131C16.6692 11.969 16.5417 11.6606 16.3667 11.3381C16.1958 11.0215 15.9583 10.6573 15.6683 10.2098L14.6192 10.8898ZM14.3942 16.3856C14.8172 15.9708 15.2312 15.5468 15.6358 15.114C15.8275 14.9065 16.005 14.7023 16.1525 14.514C16.2908 14.334 16.4308 14.1323 16.5133 13.9356L15.36 13.454C15.3433 13.4915 15.2892 13.5873 15.1642 13.7465C15.0475 13.8965 14.895 14.074 14.7158 14.269C14.3236 14.6878 13.9224 15.099 13.5125 15.5006L14.3942 16.3856ZM15.4842 12.4965C15.5308 12.8106 15.4908 13.1423 15.36 13.454L16.5133 13.9356C16.7291 13.4235 16.8008 12.863 16.7208 12.3131L15.4842 12.4965ZM12.2367 13.4765L11.8575 13.1448L11.0342 14.0848L11.4133 14.4165L12.2367 13.4765ZM13.6567 15.6098C13.5017 15.2215 13.4067 14.979 13.28 14.7498L12.185 15.3515C12.2658 15.4981 12.33 15.6573 12.4958 16.0731L13.6567 15.6098ZM11.3842 14.3898C11.7008 14.7056 11.8225 14.8281 11.9258 14.9598L12.9092 14.1881C12.7483 13.9823 12.5625 13.799 12.2658 13.504L11.3842 14.3898ZM13.2808 14.7498C13.1726 14.5529 13.0477 14.365 12.9092 14.1881L11.9267 14.9598C12.0239 15.0831 12.11 15.2137 12.185 15.3515L13.2808 14.7498ZM13.4517 15.5606C13.4658 15.5467 13.4831 15.5363 13.5021 15.5303C13.5211 15.5244 13.5412 15.5231 13.5608 15.5265C13.5925 15.5323 13.6358 15.5581 13.6567 15.6098L12.4958 16.0731C12.7958 16.8265 13.7708 17.0065 14.3333 16.4465L13.4517 15.5606ZM11.8875 13.1723L11.6833 12.969L10.8 13.8531L11.0042 14.0573L11.8875 13.1723ZM5.9825 9.01063L6.11 9.13813L6.99333 8.25396L6.86583 8.1273L5.9825 9.01063Z" fill="#16A34A"/>
<path d="M4.62334 10.834L3.21334 12.2423C3.04315 12.4115 2.81291 12.5065 2.57292 12.5065C2.33293 12.5065 2.1027 12.4115 1.93251 12.2423C1.84835 12.1583 1.78158 12.0586 1.73603 11.9488C1.69047 11.8389 1.66702 11.7212 1.66702 11.6023C1.66702 11.4834 1.69047 11.3657 1.73603 11.2559C1.78158 11.1461 1.84835 11.0463 1.93251 10.9623L2.06001 10.834M9.23001 15.4757L7.82001 16.884C7.73597 16.968 7.66931 17.0677 7.62383 17.1774C7.57835 17.2871 7.55494 17.4048 7.55494 17.5236C7.55494 17.6424 7.57835 17.76 7.62383 17.8697C7.66931 17.9795 7.73597 18.0792 7.82001 18.1632C7.99023 18.3326 8.22065 18.4277 8.46084 18.4277C8.70103 18.4277 8.93145 18.3326 9.10167 18.1632L9.23001 18.0357M5.78001 14.2998L4.35501 15.6932" stroke="#16A34A" stroke-width="1.5" stroke-linecap="round"/>
<path opacity="0.5" d="M8.86083 14.3222C8.97474 14.2044 9.03781 14.0465 9.03646 13.8827C9.03512 13.7188 8.96946 13.562 8.85363 13.4461C8.73781 13.3301 8.58108 13.2643 8.41721 13.2628C8.25333 13.2613 8.09543 13.3242 7.9775 13.438L8.86083 14.3222ZM6.225 15.1897C6.1146 15.3082 6.0545 15.4649 6.05735 15.6268C6.06021 15.7887 6.1258 15.9432 6.24031 16.0577C6.35482 16.1722 6.50931 16.2378 6.67123 16.2407C6.83315 16.2435 6.98985 16.1834 7.10833 16.073L6.225 15.1897ZM6.5475 12.0114C6.6089 11.9541 6.65816 11.8851 6.69232 11.8085C6.72648 11.7318 6.74484 11.649 6.74633 11.5651C6.74781 11.4812 6.73237 11.3979 6.70093 11.32C6.6695 11.2422 6.62271 11.1715 6.56336 11.1122C6.50402 11.0528 6.43332 11.006 6.3555 10.9746C6.27767 10.9432 6.19432 10.9277 6.1104 10.9292C6.02648 10.9307 5.94372 10.9491 5.86705 10.9832C5.79038 11.0174 5.72138 11.0666 5.66417 11.128L6.5475 12.0114ZM3.9 12.8922C3.84028 12.9498 3.79263 13.0188 3.75984 13.095C3.72705 13.1712 3.70977 13.2532 3.70901 13.3362C3.70825 13.4192 3.72403 13.5015 3.75541 13.5783C3.7868 13.6552 3.83318 13.725 3.89183 13.7837C3.95049 13.8424 4.02025 13.8888 4.09704 13.9203C4.17384 13.9518 4.25613 13.9676 4.33912 13.9669C4.42211 13.9662 4.50413 13.949 4.58039 13.9163C4.65666 13.8836 4.72565 13.836 4.78333 13.7764L3.9 12.8922ZM7.97667 13.4389L6.225 15.1897L7.10833 16.073L8.86083 14.3222L7.97667 13.4389ZM5.66417 11.128L3.9 12.8922L4.78333 13.7764L6.5475 12.0114L5.66417 11.128ZM10.3108 10.538C10.3706 10.4805 10.4184 10.4117 10.4513 10.3355C10.4843 10.2593 10.5017 10.1774 10.5026 10.0944C10.5035 10.0114 10.4879 9.92907 10.4566 9.8522C10.4254 9.77532 10.3791 9.70544 10.3206 9.64662C10.2621 9.58781 10.1924 9.54124 10.1157 9.50963C10.039 9.47802 9.9567 9.46201 9.87372 9.46253C9.79074 9.46305 9.70869 9.48009 9.63237 9.51265C9.55604 9.54522 9.48696 9.59265 9.42917 9.65219L10.3108 10.538ZM8.8175 12.0255L10.3108 10.538L9.42917 9.65219L7.93583 11.1397L8.8175 12.0255ZM14.4075 6.67803C14.26 6.82433 14.0607 6.90643 13.8529 6.90643C13.6452 6.90643 13.4458 6.82433 13.2983 6.67803L12.4158 7.56386C12.7976 7.94349 13.3141 8.15658 13.8525 8.15658C14.3909 8.15658 14.9074 7.94349 15.2892 7.56386L14.4075 6.67803ZM13.2983 6.67803C13.2261 6.60604 13.1689 6.52051 13.1298 6.42634C13.0907 6.33218 13.0706 6.23123 13.0706 6.12928C13.0706 6.02733 13.0907 5.92638 13.1298 5.83221C13.1689 5.73805 13.2261 5.65252 13.2983 5.58053L12.4158 4.69469C12.227 4.88283 12.0771 5.1064 11.9749 5.35258C11.8727 5.59876 11.82 5.86271 11.82 6.12928C11.82 6.39585 11.8727 6.65979 11.9749 6.90597C12.0771 7.15215 12.227 7.37572 12.4158 7.56386L13.2983 6.67803ZM13.2983 5.58053C13.4458 5.43448 13.645 5.35254 13.8525 5.35254C14.06 5.35254 14.2592 5.43448 14.4067 5.58053L15.29 4.69469C14.9082 4.31482 14.3915 4.10156 13.8529 4.10156C13.3143 4.10156 12.7976 4.31482 12.4158 4.69469L13.2983 5.58053ZM14.4067 5.58053C14.4789 5.65252 14.5361 5.73805 14.5752 5.83221C14.6143 5.92638 14.6344 6.02733 14.6344 6.12928C14.6344 6.23123 14.6143 6.33218 14.5752 6.42634C14.5361 6.52051 14.4797 6.60604 14.4075 6.67803L15.2892 7.56386C15.478 7.37572 15.6287 7.15215 15.7309 6.90597C15.8332 6.65979 15.8858 6.39585 15.8858 6.12928C15.8858 5.86271 15.8332 5.59876 15.7309 5.35258C15.6287 5.1064 15.4788 4.88283 15.29 4.69469L14.4067 5.58053Z" fill="#16A34A"/>
</svg>
