<?xml version="1.0" encoding="UTF-8"?>
<svg width="25" height="24" viewBox="0 0 25 24" fill="none" xmlns="http://www.w3.org/2000/svg">
<g clip-path="url(#clip0_562_7357)">
<path d="M4.72173 2.79956L6.84303 3.49963L6.99783 3.59961C7.34103 3.39961 7.69563 3.19963 8.05843 2.99963L7.99213 2.79956L8.41203 0.599609L10.3565 0.0996094L11.8369 1.79956L11.8809 1.99963C12.2969 1.89963 12.7029 1.89963 13.1189 1.99963L13.1629 1.79956L14.6429 0.0996094L16.5879 0.599609L17.0079 2.79956L16.9419 2.99963C17.3039 3.19963 17.6589 3.39961 18.0019 3.59961L18.1569 3.49963L20.2779 2.79956L21.6919 4.19958L20.9849 6.29956L20.8309 6.49963C21.0569 6.79963 21.2689 7.19963 21.4489 7.49963H21.6479L23.8359 7.89966L24.3659 9.79956L22.6649 11.2996H22.4879C22.5139 11.7996 22.5139 12.1996 22.4879 12.5996H22.6649L24.3659 14.0996L23.8359 16.0996L21.6479 16.4996L21.4489 16.3997C21.2689 16.7997 21.0569 17.0996 20.8309 17.4996L20.9849 17.5996L21.6919 19.6996L20.2779 21.1996L18.1569 20.3997L18.0019 20.2996C17.6589 20.4996 17.3039 20.6997 16.9419 20.8997L17.0079 21.0996L16.5879 23.2996L14.6429 23.7996L13.1629 22.0996L13.1189 21.9996H11.8809L11.8369 22.0996L10.3565 23.7996L8.41193 23.2996L7.99213 21.0996L8.05843 20.8997C7.69563 20.6997 7.34103 20.4996 6.99773 20.2996L6.84303 20.3997L4.72173 21.1996L3.30753 19.6996L4.01463 17.5996L4.16933 17.4996C3.94263 17.0996 3.73043 16.7997 3.55063 16.3997L3.35173 16.4996L1.16413 16.0996L0.633789 14.0996L2.33529 12.5996H2.51199C2.48619 12.1996 2.48619 11.7996 2.51199 11.2996H2.33529L0.633789 9.79956L1.16412 7.89966L3.35172 7.49963H3.55062C3.73042 7.19963 3.94272 6.79963 4.16932 6.49963L4.01462 6.29956L3.30752 4.19958L4.72173 2.79956ZM7.55023 6.99963C4.81653 9.69963 4.81653 14.1997 7.55023 16.8997C10.2838 19.5997 14.7159 19.5997 17.4499 16.8997C20.1829 14.1997 20.1829 9.69963 17.4499 6.99963C14.7159 4.29963 10.2838 4.29963 7.55023 6.99963Z" fill="#95A5A6"/>
<path d="M6.84302 6.29961C9.96723 3.19961 15.0329 3.19961 18.157 6.29961C21.281 9.39961 21.281 14.4997 18.157 17.5997C15.033 20.6997 9.96742 20.6997 6.84302 17.5997C3.71892 14.4997 3.71892 9.39961 6.84302 6.29961ZM8.32362 6.39971L10.4891 8.49968C11.3739 7.99968 12.3849 7.79966 13.3619 8.09966L14.7539 5.29961C12.6119 4.59961 10.2021 4.99971 8.32362 6.39971ZM6.90943 7.79961C5.50303 9.69961 5.14343 12.0996 5.87083 14.1996L8.58882 12.7996C8.37172 11.7996 8.55312 10.7997 9.07492 9.99968L6.90943 7.79961ZM11.0859 10.4997C10.3046 11.2997 10.3046 12.5997 11.0859 13.3997C11.8669 14.1997 13.1329 14.1997 13.9139 13.3997C14.6949 12.5997 14.6949 11.2997 13.9139 10.4997C13.1329 9.79968 11.8669 9.79968 11.0859 10.4997ZM16.5219 6.29961L15.1299 8.99968C15.1919 8.99968 15.2679 9.09966 15.3279 9.09966C16.0179 9.79966 16.3959 10.6997 16.4769 11.5997L19.4829 12.0997C19.5049 10.1997 18.8389 8.39968 17.4499 6.99968C17.1619 6.69968 16.8429 6.49961 16.5219 6.29961ZM6.79892 15.9997C7.02602 16.2997 7.26242 16.5997 7.55023 16.8997C8.93902 18.2997 10.7679 18.9997 12.5879 18.8997L12.1459 15.8997C11.2459 15.8997 10.3605 15.4996 9.67153 14.7996C9.61132 14.6996 9.57232 14.6997 9.51682 14.5997L6.79892 15.9997ZM16.1679 13.5997C15.9739 13.9997 15.6939 14.3996 15.3279 14.7996C14.9629 15.1996 14.5379 15.3997 14.0909 15.5997L14.5549 18.6996C15.6129 18.2996 16.6129 17.6997 17.4499 16.8997C18.2869 16.0997 18.8709 15.0997 19.1949 13.9997L16.1679 13.5997Z" fill="#7F8C8D"/>
</g>
<defs>
<clipPath id="clip0_562_7357">
<rect width="24" height="24" fill="white" transform="translate(0.5)"/>
</clipPath>
</defs>
</svg>
