<?xml version="1.0" encoding="UTF-8"?>
<svg width="25" height="24" viewBox="0 0 25 24" fill="none" xmlns="http://www.w3.org/2000/svg">
<path d="M24.7 12C24.7 5.37258 19.3274 0 12.7 0C6.07253 0 0.699951 5.37258 0.699951 12C0.699951 18.6274 6.07253 24 12.7 24C19.3274 24 24.7 18.6274 24.7 12Z" fill="black"/>
<path d="M16.8565 9.34409C16.7838 9.41093 16.689 9.4485 16.5902 9.44957H7.24245C6.91069 9.44957 6.74311 9.07018 6.97279 8.84816L8.50821 7.36804C8.57957 7.29914 8.67443 7.25992 8.77361 7.2583H18.158C18.4931 7.2583 18.6573 7.6411 18.4242 7.86396L16.8565 9.34409Z" fill="url(#paint0_linear_869_3650)"/>
<path d="M16.8565 16.6395C16.7833 16.7051 16.6885 16.7414 16.5902 16.7416H7.24245C6.91069 16.7416 6.74311 16.3656 6.97279 16.1436L8.50821 14.6592C8.57976 14.5912 8.67485 14.5533 8.77361 14.5537H18.158C18.4931 14.5537 18.6573 14.9331 18.4242 15.1551L16.8565 16.6395Z" fill="url(#paint1_linear_869_3650)"/>
<path d="M16.8565 11.01C16.7833 10.9445 16.6885 10.9081 16.5902 10.908H7.24245C6.91069 10.908 6.74311 11.284 6.97279 11.506L8.50821 12.9903C8.58068 13.057 8.67517 13.0946 8.77361 13.0959H18.158C18.4931 13.0959 18.6573 12.7165 18.4242 12.4945L16.8565 11.01Z" fill="url(#paint2_linear_869_3650)"/>
<defs>
<linearGradient id="paint0_linear_869_3650" x1="6.86731" y1="39.8967" x2="18.8307" y2="39.7871" gradientUnits="userSpaceOnUse">
<stop stop-color="#599DB0"/>
<stop offset="1" stop-color="#47F8C3"/>
</linearGradient>
<linearGradient id="paint1_linear_869_3650" x1="6.86731" y1="10.164" x2="18.7547" y2="10.073" gradientUnits="userSpaceOnUse">
<stop stop-color="#C44FE2"/>
<stop offset="1" stop-color="#73B0D0"/>
</linearGradient>
<linearGradient id="paint2_linear_869_3650" x1="7.53847" y1="12.0019" x2="18.0814" y2="12.0019" gradientUnits="userSpaceOnUse">
<stop stop-color="#778CBF"/>
<stop offset="1" stop-color="#5DCDC9"/>
</linearGradient>
</defs>
</svg>
