<?xml version="1.0" encoding="UTF-8"?>
<svg width="20" height="20" viewBox="0 0 20 20" fill="none" xmlns="http://www.w3.org/2000/svg">
<path opacity="0.5" d="M3.93997 13.4471C2.65247 12.1587 2.0083 11.5154 1.76914 10.6796C1.52914 9.84372 1.73414 8.95622 2.14414 7.18205L2.37997 6.15872C2.72414 4.66539 2.89664 3.91872 3.40747 3.40705C3.9183 2.89539 4.6658 2.72372 6.15914 2.37955L7.18247 2.14289C8.95747 1.73372 9.84414 1.52872 10.68 1.76789C11.5158 2.00789 12.1591 2.65205 13.4466 3.93955L14.9716 5.46455C17.2141 7.70622 18.3333 8.82622 18.3333 10.2179C18.3333 11.6104 17.2133 12.7304 14.9725 14.9712C12.7308 17.2129 11.6108 18.3329 10.2183 18.3329C8.82664 18.3329 7.7058 17.2129 5.46497 14.9721L3.93997 13.4471Z" stroke="#CA8A04"/>
<path d="M12.825 12.8247C13.3125 12.3356 13.3783 11.6106 12.9716 11.2031C12.565 10.7956 11.8391 10.8622 11.3508 11.3506C10.8633 11.8389 10.1375 11.9047 9.7308 11.4981C9.32414 11.0914 9.38997 10.3656 9.8783 9.87807M9.8783 9.87807L9.5833 9.58307M9.8783 9.87807C10.1541 9.6014 10.5058 9.4614 10.8333 9.4639M13.1191 13.1189L12.8241 12.8239C12.4908 13.1581 12.045 13.2947 11.6666 13.2164" stroke="#CA8A04" stroke-linecap="round"/>
<path d="M8.35096 8.57695C9.00184 7.92607 9.00184 6.8708 8.35096 6.21993C7.70009 5.56905 6.64482 5.56905 5.99394 6.21993C5.34307 6.8708 5.34307 7.92607 5.99394 8.57695C6.64481 9.22782 7.70009 9.22782 8.35096 8.57695Z" stroke="#CA8A04"/>
</svg>
