<?xml version="1.0" encoding="UTF-8"?>
<svg width="25" height="25" viewBox="0 0 25 25" fill="none" xmlns="http://www.w3.org/2000/svg">
<g clip-path="url(#clip0_830_3973)">
<path d="M21.4986 2.84454C21.3824 2.7442 21.241 2.67747 21.0897 2.65153C20.9384 2.62559 20.7829 2.64144 20.6399 2.69736L1.64051 10.1327C1.37124 10.2374 1.14328 10.4267 0.990935 10.6722C0.838592 10.9177 0.770115 11.206 0.795813 11.4937C0.821512 11.7815 0.939995 12.0531 1.13342 12.2677C1.32685 12.4823 1.58476 12.6283 1.86832 12.6836L6.79113 13.6502V19.1392C6.79016 19.4382 6.87901 19.7306 7.04617 19.9785C7.21333 20.2264 7.45108 20.4184 7.72863 20.5295C8.00575 20.6427 8.3105 20.6699 8.60326 20.6075C8.89603 20.5451 9.16325 20.3961 9.37019 20.1799L11.7439 17.718L15.5099 21.0142C15.7816 21.2552 16.132 21.3886 16.4952 21.3892C16.6543 21.3891 16.8125 21.3641 16.9639 21.3152C17.2114 21.2367 17.434 21.0947 17.6095 20.9034C17.785 20.7121 17.9073 20.4781 17.9643 20.2249L21.7696 3.67048C21.8036 3.52118 21.7964 3.36544 21.7486 3.21994C21.7009 3.07444 21.6145 2.94467 21.4986 2.84454ZM16.4971 19.8892L8.74582 13.0924L19.9021 5.09642L16.4971 19.8892Z" fill="white"/>
</g>
<defs>
<clipPath id="clip0_830_3973">
<rect width="24" height="24" fill="white" transform="translate(0.0415039 0.38916)"/>
</clipPath>
</defs>
</svg>
