<?xml version="1.0" encoding="UTF-8"?>
<svg width="25" height="25" viewBox="0 0 25 25" fill="none" xmlns="http://www.w3.org/2000/svg">
<path d="M20.1981 21.0001C20.1335 21.1177 20.0386 21.2159 19.9232 21.2843C19.8077 21.3527 19.6761 21.3889 19.5419 21.3892H15.0419C14.9156 21.3891 14.7915 21.3572 14.6808 21.2964C14.5702 21.2356 14.4767 21.1479 14.4091 21.0413L10.6131 15.076L5.09687 21.1435C4.9624 21.288 4.77641 21.3736 4.57922 21.3819C4.38204 21.3901 4.18956 21.3203 4.0435 21.1875C3.89745 21.0548 3.8096 20.8699 3.799 20.6728C3.7884 20.4757 3.8559 20.2824 3.98687 20.1348L9.77781 13.7598L3.90906 4.54229C3.83678 4.42889 3.79631 4.29814 3.79191 4.16374C3.7875 4.02934 3.81931 3.89623 3.884 3.77834C3.9487 3.66045 4.0439 3.56212 4.15964 3.49365C4.27538 3.42519 4.40739 3.38909 4.54187 3.38916H9.04187C9.1681 3.3892 9.29227 3.4211 9.40289 3.4819C9.51351 3.5427 9.60699 3.63043 9.67468 3.73697L13.4706 9.70228L18.9869 3.63479C19.1213 3.49033 19.3073 3.40471 19.5045 3.39647C19.7017 3.38823 19.8942 3.45804 20.0402 3.59078C20.1863 3.72351 20.2741 3.90845 20.2847 4.10552C20.2953 4.30259 20.2278 4.4959 20.0969 4.64354L14.3059 11.0138L20.1747 20.237C20.2466 20.3504 20.2866 20.4811 20.2908 20.6153C20.2949 20.7496 20.2629 20.8825 20.1981 21.0001Z" fill="white"/>
</svg>
