<svg width="56" height="55" viewBox="0 0 56 55" fill="none" xmlns="http://www.w3.org/2000/svg">
<path d="M5.15625 27.5C5.15625 15.0736 15.2298 5 27.6562 5C40.0827 5 50.1562 15.0736 50.1562 27.5C50.1562 39.9264 40.0827 50 27.6562 50C15.2298 50 5.15625 39.9264 5.15625 27.5Z" fill="white"/>
<path fill-rule="evenodd" clip-rule="evenodd" d="M27.6562 50.4168C40.3605 50.4168 50.5731 40.2042 50.5731 27.4999C50.5731 14.7957 40.3605 4.5835 27.6562 4.5835C14.9519 4.5835 4.73975 14.7957 4.73975 27.4999C4.73975 40.2042 14.9519 50.4168 27.6562 50.4168ZM33.9592 31.1224C33.9592 27.7855 31.954 26.6394 27.9436 26.1669C25.0792 25.7803 24.5065 25.021 24.5065 23.6747C24.5065 22.3427 25.4658 21.4834 27.3709 21.4834C29.0896 21.4834 30.0491 22.0563 30.5219 23.4886C30.6223 23.7751 30.9087 23.9611 31.1952 23.9611H32.7134C33.1 23.9611 33.3865 23.6747 33.3865 23.3021V23.2019C32.9999 21.0964 31.2809 19.0914 29.0896 18.9052V16.7997C29.0896 16.413 28.8032 16.1265 28.3306 16.0406H27.07C26.6834 16.0406 26.3254 16.3271 26.2253 16.7997V18.9052C23.3605 19.2919 21.4555 21.4834 21.4555 23.8752C21.4555 27.0262 23.3605 28.258 27.3709 28.745C30.0491 29.2175 30.9087 29.7907 30.9087 31.3229C30.9087 32.8411 29.5622 33.9012 27.7575 33.9012C25.2653 33.9012 24.4061 32.8411 24.1197 31.4093C24.0335 31.0367 23.7471 30.8361 23.4606 30.8361H21.8278C21.4555 30.8361 21.1691 31.1224 21.1691 31.5094V31.6098C21.5414 33.9872 23.074 35.62 26.2253 36.0928V38.2126C26.2253 38.5992 26.5117 38.8567 26.9843 38.9571H28.359C28.7317 38.9571 28.9895 38.6995 29.0896 38.2126V36.0928C31.954 35.62 33.9592 33.7007 33.9592 31.1224ZM18.0134 38.2572C19.3982 39.5268 21.0207 40.5095 22.7873 41.1482C23.074 41.3487 23.3605 41.7213 23.3605 42.0078V43.3539C23.3605 43.5402 23.3605 43.6406 23.2601 43.7265C23.1744 44.1131 22.7873 44.2992 22.4006 44.1131C18.925 43.007 15.8912 40.8239 13.7383 37.8796C11.5854 34.9352 10.4251 31.3825 10.4251 27.7351C10.4251 24.0874 11.5854 20.5345 13.7383 17.5902C15.8912 14.6458 18.925 12.4627 22.4006 11.3567C22.5009 11.2707 22.687 11.2707 22.7873 11.2707C23.1744 11.3567 23.3605 11.6431 23.3605 12.0299V13.3619C23.3605 13.8489 23.1744 14.1353 22.7873 14.3215C18.8773 15.7538 15.7262 18.8046 14.294 22.8149C13.639 24.5758 13.3394 26.449 13.4124 28.3261C13.4854 30.2034 13.9296 32.0475 14.7193 33.7518C15.509 35.4566 16.6286 36.9879 18.0134 38.2572ZM32.0543 11.7434C32.1403 11.3567 32.5269 11.1705 32.9135 11.3567C35.5391 12.21 37.9226 13.6781 39.8655 15.6388C41.8091 17.5995 43.2558 19.996 44.0856 22.6287C46.95 31.6953 41.98 41.3487 32.9135 44.2133C32.8134 44.2992 32.6273 44.2992 32.5269 44.2992C32.1403 44.2133 31.954 43.9271 31.954 43.5402V42.2083C31.954 41.7213 32.1403 41.4349 32.5269 41.2483C36.4369 39.8163 39.5882 36.7654 41.0205 32.755C41.6752 30.9945 41.975 29.1213 41.9019 27.244C41.829 25.3668 41.3849 23.5227 40.5952 21.818C39.8055 20.1135 38.686 18.5822 37.3009 17.3127C35.9163 16.0432 34.2938 15.0607 32.5269 14.4218C32.2404 14.2213 31.954 13.8489 31.954 13.4622V12.1301C31.954 11.9296 31.954 11.8437 32.0543 11.7434Z" fill="#2775CA"/>
</svg>
