<?xml version="1.0" encoding="UTF-8"?>
<svg width="24" height="24" viewBox="0 0 24 24" fill="none" xmlns="http://www.w3.org/2000/svg">
  <path d="M11.25 7.84668C10.314 8.10268 9.75 8.82168 9.75 9.49968C9.75 10.1777 10.314 10.8967 11.25 11.1517V7.84668ZM12.75 12.8477V16.1517C13.686 15.8967 14.25 15.1777 14.25 14.4997C14.25 13.8217 13.686 13.1027 12.75 12.8477Z" fill="#22C55E"/>
  <path fill-rule="evenodd" clip-rule="evenodd" d="M22 12C22 17.523 17.523 22 12 22C6.477 22 2 17.523 2 12C2 6.477 6.477 2 12 2C17.523 2 22 6.477 22 12ZM12 5.25C12.1989 5.25 12.3897 5.32902 12.5303 5.46967C12.671 5.61032 12.75 5.80109 12.75 6V6.317C14.38 6.609 15.75 7.834 15.75 9.5C15.75 9.69891 15.671 9.88968 15.5303 10.0303C15.3897 10.171 15.1989 10.25 15 10.25C14.8011 10.25 14.6103 10.171 14.4697 10.0303C14.329 9.88968 14.25 9.69891 14.25 9.5C14.25 8.822 13.686 8.103 12.75 7.847V11.317C14.38 11.609 15.75 12.834 15.75 14.5C15.75 16.166 14.38 17.391 12.75 17.683V18C12.75 18.1989 12.671 18.3897 12.5303 18.5303C12.3897 18.671 12.1989 18.75 12 18.75C11.8011 18.75 11.6103 18.671 11.4697 18.5303C11.329 18.3897 11.25 18.1989 11.25 18V17.683C9.62 17.391 8.25 16.166 8.25 14.5C8.25 14.3011 8.32902 14.1103 8.46967 13.9697C8.61032 13.829 8.80109 13.75 9 13.75C9.19891 13.75 9.38968 13.829 9.53033 13.9697C9.67098 14.1103 9.75 14.3011 9.75 14.5C9.75 15.178 10.314 15.897 11.25 16.152V12.683C9.62 12.391 8.25 11.166 8.25 9.5C8.25 7.834 9.62 6.609 11.25 6.317V6C11.25 5.80109 11.329 5.61032 11.4697 5.46967C11.6103 5.32902 11.8011 5.25 12 5.25Z" fill="#22C55E"/>
</svg> 