<svg width="33" height="33" viewBox="0 0 33 33" fill="none" xmlns="http://www.w3.org/2000/svg">
<path d="M22.506 10.8431C25.6302 13.9673 25.6302 19.0327 22.506 22.1569C19.3818 25.2811 14.3164 25.2811 11.1922 22.1569C8.06805 19.0327 8.06805 13.9673 11.1922 10.8431C14.3164 7.71896 19.3818 7.71896 22.506 10.8431Z" stroke="#060316" stroke-linecap="round" stroke-linejoin="round"/>
<path d="M22.506 14.6131C25.6302 15.6545 25.6302 17.3429 22.506 18.3843C19.3818 19.4257 14.3164 19.4257 11.1922 18.3843C8.06805 17.3429 8.06805 15.6545 11.1922 14.6131C14.3164 13.5717 19.3818 13.5717 22.506 14.6131Z" stroke="#060316" stroke-linecap="round" stroke-linejoin="round"/>
<path d="M16.8498 8.5V24.5" stroke="#060316" stroke-linecap="round" stroke-linejoin="round"/>
<path d="M10.8491 4.5H7.51576C6.04242 4.5 4.84909 5.69333 4.84909 7.16667V10.5" stroke="#060316" stroke-linecap="round" stroke-linejoin="round"/>
<path d="M28.8491 10.5V7.16667C28.8491 5.69333 27.6558 4.5 26.1824 4.5H22.8491" stroke="#060316" stroke-linecap="round" stroke-linejoin="round"/>
<path d="M4.84909 22.5V25.8333C4.84909 27.3067 6.04242 28.5 7.51576 28.5H10.8491" stroke="#060316" stroke-linecap="round" stroke-linejoin="round"/>
<path d="M22.8491 28.5H26.1824C27.6558 28.5 28.8491 27.3067 28.8491 25.8333V22.5" stroke="#060316" stroke-linecap="round" stroke-linejoin="round"/>
</svg>
