<svg xmlns="http://www.w3.org/2000/svg" width="243" height="40" fill="none"><path fill="#D5D931" fill-rule="evenodd" d="M49.868 34.123h7.546c0-.315-.005-.63-.015-.943h-5.887l5.825-1.159a28.406 28.406 0 0 0-.215-1.977L51.6 31.143l5.339-2.212a28.17 28.17 0 0 0-.462-2.055l-5.224 2.165 4.905-3.279c-.22-.716-.47-1.42-.745-2.11l-4.964 3.317 4.473-4.474a28.197 28.197 0 0 0-1.072-2.13l-4.66 4.66 3.934-5.888c-.449-.718-.93-1.415-1.44-2.088l-4.186 6.264 3.136-7.569a28.505 28.505 0 0 0-1.843-1.96l-3.198 7.721a20.66 20.66 0 0 1 4.275 12.618Zm-41.503 0c0-.571.023-1.137.069-1.697H.869c-.033.561-.05 1.127-.05 1.697h7.546Zm.566-4.833-7.406-1.474c.247-1.085.557-2.148.925-3.182l7.511 1.494a20.594 20.594 0 0 0-1.03 3.162Zm2.47-5.979-7.036-2.914c.53-.951 1.111-1.87 1.743-2.75l7.231 2.996a20.811 20.811 0 0 0-1.938 2.668Zm4.08-4.83-6.438-4.302a28.463 28.463 0 0 1 2.389-2.148l6.705 4.48a20.823 20.823 0 0 0-2.656 1.97Zm5.14-3.296-5.603-5.602a28.204 28.204 0 0 1 2.84-1.429l5.913 5.913c-1.088.29-2.14.664-3.15 1.118Zm5.584-1.61-4.52-6.763a28.14 28.14 0 0 1 3.081-.654l4.824 7.22a20.933 20.933 0 0 0-3.385.197Zm5.424-.053-3.185-7.688a28.82 28.82 0 0 1 3.102.095l3.43 8.282a20.64 20.64 0 0 0-3.347-.689Zm4.806 1.177-1.652-8.306c1 .204 1.982.46 2.941.766l1.79 9.002a20.663 20.663 0 0 0-3.079-1.462Zm3.938 1.988V8.153c.906.393 1.787.833 2.64 1.315v9.244a20.834 20.834 0 0 0-2.64-2.025Zm3.018 2.374 1.657-8.328a28.396 28.396 0 0 1 2.256 1.71l-1.784 8.969a20.864 20.864 0 0 0-2.129-2.35Z" clip-rule="evenodd"/><path fill="#D5D931" fill-rule="evenodd" d="M42.322 34.123h7.546c0-.361-.01-.72-.028-1.077l-3.753-.065 3.703-.67a20.739 20.739 0 0 0-.401-2.643l-4.252.769 4.053-1.597c-.22-.839-.492-1.657-.811-2.451l-4.638 1.826 4.248-2.732a20.69 20.69 0 0 0-1.173-2.199l-4.825 3.104 4.202-4.059c-.456-.66-.95-1.292-1.479-1.893l-4.731 4.569 3.835-5.528a20.864 20.864 0 0 0-1.721-1.546l-4.276 6.163 3.07-7.06c-.608-.42-1.24-.81-1.894-1.164l-3.027 6.963a13.198 13.198 0 0 1 6.352 11.29Zm-26.41 0H8.364c0-.35.009-.7.026-1.046l7.551.132c-.02.302-.03.607-.03.914Zm21.553-19.004a20.63 20.63 0 0 0-1.992-.756l-1.613 7.432c.679.261 1.331.577 1.95.943l1.655-7.619Zm-3.844-1.257a20.701 20.701 0 0 0-2.007-.342l-.133 7.609c.688.124 1.357.302 2.004.528l.136-7.795Zm-4.504-.49c-.53 0-1.054.02-1.573.058l1.354 7.49a13.197 13.197 0 0 1 1.97.113l-1.385-7.658a21.303 21.303 0 0 0-.366-.003Zm-3.938 8.143L21 15.019c-.537.228-1.062.478-1.574.75l4.106 6.384a13.11 13.11 0 0 1 1.646-.638Zm-2.77 1.23-5.334-5.524c-.447.319-.88.655-1.3 1.007l5.262 5.45c.437-.34.895-.65 1.373-.933Zm-8.752-2.465c-.344.384-.674.78-.988 1.189l6.212 4.31c.328-.402.68-.785 1.052-1.145l-6.276-4.354Zm-2.7 3.792a20.67 20.67 0 0 0-.657 1.29l6.925 3.012c.212-.438.447-.862.705-1.27l-6.972-3.032ZM9.16 28.416a20.6 20.6 0 0 0-.328 1.312l7.375 1.601c.096-.444.214-.88.353-1.307l-7.4-1.606Zm18.896-7.456c-.63.05-1.248.144-1.85.28l-2.787-7.076a20.61 20.61 0 0 1 1.792-.425l2.845 7.22Z" clip-rule="evenodd"/><path fill="#D5D931" fill-rule="evenodd" d="m41.27 34.123 1.052-.037c0-.21-.006-.42-.016-.628l-6.401.223-.112-.018 6.385-1.504c-.036-.24-.078-.477-.127-.713l-6.063 1.428 5.758-2.624c-.081-.263-.17-.522-.266-.778l-5.392 2.458 4.926-3.546a13.146 13.146 0 0 0-.43-.814l-4.636 3.337 4.02-4.311c-.194-.28-.4-.553-.615-.816l-3.811 4.087 3.055-4.937c-.26-.27-.533-.527-.816-.773l-2.92 4.72 2.03-5.43c-.33-.24-.671-.466-1.023-.676l-1.958 5.235.942-5.782a13.128 13.128 0 0 0-1.222-.515l-.914 5.613-.209-5.965c-.455-.12-.92-.218-1.394-.29l.203 5.82-1.4-5.946a13.398 13.398 0 0 0-1.519-.004l1.37 5.818-2.595-5.695c-.537.079-1.063.19-1.576.332l2.54 5.575-3.732-5.184c-.532.203-1.047.44-1.543.708l3.64 5.057-4.723-4.405c-.496.332-.968.697-1.413 1.09l4.582 4.273-5.484-3.393c-.425.455-.819.94-1.177 1.453l5.273 3.263-5.933-2.218c-.32.564-.6 1.155-.837 1.768l5.635 2.106-6.011-.978c-.185.649-.32 1.319-.404 2.004l5.609.914-5.697.199c-.006.165-.01.332-.01.499h7.547a5.66 5.66 0 0 1 11.319 0h6.492Z" clip-rule="evenodd"/><path fill="#E6EDE4" d="M242.836 22.745h-15.798c.621 3.06 2.812 4.756 6.038 4.756 2.357 0 3.763-.455 6.038-2.026l2.399 3.474c-2.647 2.191-5.087 3.06-8.602 3.06-6.534 0-11.166-4.921-11.166-11.249 0-6.327 4.838-11.248 10.959-11.248 6.658 0 10.132 5.17 10.132 11.331v1.902Zm-15.839-3.722h10.752c-.248-2.605-1.778-5.086-5.004-5.086-2.936 0-5.169 1.82-5.748 5.086ZM199.071 38.295l1.323-4.342c1.944.91 4.136 1.488 6.369 1.488 5.211 0 6.575-2.15 6.575-5.79v-1.654c-1.158 1.49-3.556 3.392-7.154 3.392-5.79 0-9.884-4.632-9.884-10.877 0-6.286 4.094-11 9.884-11 3.887 0 6.534 1.737 8.064 3.68l.91-3.225h3.35V28.7c0 7.94-4.218 11.25-11.332 11.25-4.094 0-6.823-.993-8.105-1.655Zm8.395-11.62c3.474 0 5.872-2.524 5.872-6.163 0-3.64-2.398-6.286-5.872-6.286-3.557 0-5.955 2.523-5.955 6.286 0 3.722 2.398 6.162 5.955 6.162ZM189.713 31.554l-.91-3.267c-1.53 1.944-4.177 3.722-8.064 3.722-5.79 0-9.884-5.004-9.884-11.249 0-6.286 4.094-11.248 9.884-11.248a9.034 9.034 0 0 1 7.155 3.432V2.711h5.169v28.843h-3.35Zm-7.692-4.26c3.474 0 5.873-2.894 5.873-6.534 0-3.68-2.399-6.534-5.873-6.534-3.556 0-5.955 2.771-5.955 6.534 0 3.722 2.399 6.534 5.955 6.534ZM161.872 3.143c0-1.737 1.323-3.143 3.102-3.143a3.142 3.142 0 0 1 3.143 3.143 3.142 3.142 0 0 1-3.143 3.143c-1.779 0-3.102-1.406-3.102-3.143Zm5.748 28.411h-5.169V9.967h5.169v21.587ZM151.949 31.554h-5.17V9.967h3.309l1.241 3.804c1.158-2.068 3.06-4.549 8.601-4.218l-.703 5.5c-5.541-.372-7.278 2.523-7.278 5.997v10.504ZM132.975 31.554h-12.241V2.605h11.207c4.715 0 10.38 1.944 10.38 7.94 0 3.433-2.191 5.211-4.011 6.162v.042c1.944.827 5.045 2.647 5.045 6.906 0 5.831-4.921 7.899-10.38 7.899Zm-6.948-24.358v7.485h6.038c3.185 0 4.922-1.447 4.922-3.64 0-2.77-1.82-3.845-5.294-3.845h-5.666Zm0 11.993v7.775h6.659c3.722 0 5.334-1.241 5.334-3.764 0-2.398-1.943-4.011-5.21-4.011h-6.783ZM117.266 22.745h-15.797c.62 3.06 2.812 4.756 6.038 4.756 2.357 0 3.763-.455 6.038-2.026l2.398 3.474c-2.647 2.191-5.087 3.06-8.602 3.06-6.534 0-11.166-4.921-11.166-11.249 0-6.327 4.839-11.248 10.959-11.248 6.659 0 10.132 5.17 10.132 11.331v1.902Zm-15.839-3.722h10.753c-.248-2.605-1.778-5.086-5.004-5.086-2.936 0-5.17 1.82-5.749 5.086ZM89.588 31.554l-.91-3.267c-1.53 1.944-4.176 3.722-8.064 3.722-5.79 0-9.883-5.004-9.883-11.249 0-6.286 4.094-11.248 9.883-11.248a9.033 9.033 0 0 1 7.155 3.432V2.711h5.17v28.843h-3.35Zm-7.692-4.26c3.474 0 5.873-2.894 5.873-6.534 0-3.68-2.399-6.534-5.873-6.534-3.556 0-5.955 2.771-5.955 6.534 0 3.722 2.399 6.534 5.955 6.534Z"/></svg>