<svg width="125" height="33" viewBox="0 0 125 33" fill="none" xmlns="http://www.w3.org/2000/svg">
<g clip-path="url(#clip0_1355_9100)">
<path d="M124.276 15.325L121.783 15.4784C121.74 15.2654 121.649 15.0736 121.508 14.9031C121.368 14.7284 121.182 14.5899 120.952 14.4877C120.726 14.3811 120.456 14.3279 120.14 14.3279C119.718 14.3279 119.363 14.4173 119.073 14.5963C118.783 14.771 118.638 15.0054 118.638 15.2994C118.638 15.5338 118.732 15.732 118.919 15.8939C119.107 16.0558 119.429 16.1858 119.885 16.2838L121.662 16.6418C122.616 16.8378 123.328 17.1531 123.797 17.5878C124.265 18.0225 124.5 18.5935 124.5 19.3009C124.5 19.9443 124.31 20.509 123.931 20.9948C123.556 21.4806 123.04 21.8598 122.384 22.1325C121.732 22.401 120.98 22.5352 120.128 22.5352C118.828 22.5352 117.792 22.2646 117.021 21.7235C116.254 21.178 115.804 20.4365 115.672 19.499L118.351 19.3584C118.432 19.7547 118.628 20.0573 118.939 20.2661C119.25 20.4706 119.648 20.5729 120.134 20.5729C120.611 20.5729 120.995 20.4813 121.285 20.298C121.579 20.1105 121.728 19.8698 121.732 19.5757C121.728 19.3286 121.623 19.1261 121.419 18.9685C121.214 18.8065 120.899 18.683 120.473 18.5977L118.772 18.259C117.814 18.0672 117.1 17.7348 116.631 17.2618C116.167 16.7888 115.934 16.1858 115.934 15.4529C115.934 14.8222 116.105 14.2788 116.446 13.8229C116.791 13.3669 117.275 13.0154 117.897 12.7682C118.523 12.521 119.256 12.3975 120.096 12.3975C121.336 12.3975 122.312 12.6595 123.023 13.1837C123.739 13.7078 124.157 14.4216 124.276 15.325Z" fill="black"/>
<path d="M115.256 12.5251V14.5706H109.344V12.5251H115.256ZM110.686 10.1729H113.409V19.3262C113.409 19.5777 113.447 19.7737 113.524 19.9143C113.601 20.0507 113.707 20.1466 113.844 20.2019C113.984 20.2573 114.146 20.285 114.329 20.285C114.457 20.285 114.585 20.2744 114.713 20.2531C114.841 20.2275 114.939 20.2083 115.007 20.1956L115.435 22.2218C115.299 22.2644 115.107 22.3135 114.86 22.3689C114.613 22.4285 114.312 22.4647 113.959 22.4775C113.302 22.5031 112.727 22.4157 112.233 22.2154C111.743 22.0152 111.361 21.7041 111.089 21.2822C110.816 20.8603 110.682 20.3277 110.686 19.6842V10.1729Z" fill="black"/>
<path d="M102.36 16.6673V22.3435H99.6367V12.5253H102.232V14.2575H102.347C102.564 13.6865 102.929 13.2348 103.44 12.9024C103.951 12.5658 104.571 12.3975 105.3 12.3975C105.982 12.3975 106.576 12.5466 107.083 12.8449C107.59 13.1432 107.985 13.5693 108.266 14.1233C108.547 14.673 108.688 15.3293 108.688 16.0921V22.3435H105.965V16.5779C105.969 15.977 105.816 15.5083 105.505 15.1716C105.193 14.8307 104.765 14.6602 104.22 14.6602C103.853 14.6602 103.529 14.7391 103.248 14.8967C102.971 15.0544 102.754 15.2845 102.596 15.5871C102.443 15.8854 102.364 16.2455 102.36 16.6673Z" fill="black"/>
<path d="M94.1533 22.5352C93.1433 22.5352 92.274 22.3307 91.5453 21.9216C90.8209 21.5083 90.2626 20.9244 89.8706 20.1702C89.4786 19.4117 89.2825 18.5146 89.2825 17.4791C89.2825 16.4692 89.4786 15.5828 89.8706 14.82C90.2626 14.0573 90.8145 13.4628 91.5261 13.0367C92.242 12.6105 93.0815 12.3975 94.0446 12.3975C94.6923 12.3975 95.2953 12.5019 95.8536 12.7107C96.4161 12.9152 96.9061 13.2242 97.3237 13.6375C97.7456 14.0509 98.0737 14.5708 98.3081 15.1972C98.5425 15.8193 98.6597 16.548 98.6597 17.3833V18.1311H90.3692V16.4436H96.0965C96.0965 16.0516 96.0112 15.7043 95.8408 15.4017C95.6703 15.0992 95.4338 14.8627 95.1313 14.6922C94.833 14.5175 94.4857 14.4301 94.0894 14.4301C93.676 14.4301 93.3095 14.526 92.9899 14.7178C92.6746 14.9053 92.4274 15.1588 92.2484 15.4784C92.0695 15.7938 91.9778 16.1453 91.9736 16.5331V18.1375C91.9736 18.6233 92.0631 19.0431 92.2421 19.3967C92.4253 19.7504 92.6831 20.0232 93.0155 20.2149C93.3479 20.4067 93.742 20.5026 94.198 20.5026C94.5006 20.5026 94.7776 20.46 95.029 20.3747C95.2804 20.2895 95.4956 20.1617 95.6746 19.9912C95.8536 19.8208 95.9899 19.6119 96.0837 19.3648L98.6021 19.531C98.4743 20.1361 98.2122 20.6645 97.8159 21.1162C97.4239 21.5636 96.9168 21.9131 96.2946 22.1645C95.6767 22.4117 94.9629 22.5352 94.1533 22.5352Z" fill="black"/>
<path d="M88.8105 12.5251V14.5706H82.8979V12.5251H88.8105ZM84.2402 10.1729H86.9632V19.3262C86.9632 19.5777 87.0016 19.7737 87.0783 19.9143C87.155 20.0507 87.2615 20.1466 87.3979 20.2019C87.5385 20.2573 87.7004 20.285 87.8837 20.285C88.0115 20.285 88.1394 20.2744 88.2672 20.2531C88.395 20.2275 88.4931 20.2083 88.5612 20.1956L88.9895 22.2218C88.8531 22.2644 88.6614 22.3135 88.4142 22.3689C88.1671 22.4285 87.8666 22.4647 87.5129 22.4775C86.8567 22.5031 86.2814 22.4157 85.7871 22.2154C85.297 22.0152 84.9156 21.7041 84.6429 21.2822C84.3702 20.8603 84.236 20.3277 84.2402 19.6842V10.1729Z" fill="black"/>
<path d="M75.9139 16.6673V22.3435H73.1909V12.5253H75.7861V14.2575H75.9011C76.1185 13.6865 76.4828 13.2348 76.9942 12.9024C77.5055 12.5658 78.1256 12.3975 78.8543 12.3975C79.5361 12.3975 80.1305 12.5466 80.6377 12.8449C81.1448 13.1432 81.5389 13.5693 81.8202 14.1233C82.1014 14.673 82.2421 15.3293 82.2421 16.0921V22.3435H79.519V16.5779C79.5233 15.977 79.3699 15.5083 79.0588 15.1716C78.7477 14.8307 78.3195 14.6602 77.774 14.6602C77.4075 14.6602 77.0837 14.7391 76.8024 14.8967C76.5254 15.0544 76.3081 15.2845 76.1504 15.5871C75.997 15.8854 75.9182 16.2455 75.9139 16.6673Z" fill="black"/>
<path d="M69.0866 22.3437V12.5255H71.8097V22.3437H69.0866ZM70.4545 11.2599C70.0497 11.2599 69.7024 11.1256 69.4126 10.8572C69.1271 10.5844 68.9844 10.2584 68.9844 9.87917C68.9844 9.50417 69.1271 9.18244 69.4126 8.91398C69.7024 8.64125 70.0497 8.50488 70.4545 8.50488C70.8594 8.50488 71.2045 8.64125 71.4901 8.91398C71.7798 9.18244 71.9247 9.50417 71.9247 9.87917C71.9247 10.2584 71.7798 10.5844 71.4901 10.8572C71.2045 11.1256 70.8594 11.2599 70.4545 11.2599Z" fill="black"/>
<path d="M0 10.3438C0 4.8209 4.47715 0.34375 10 0.34375H47.4575C50.9054 0.34375 54.1101 2.11995 55.9375 5.04376L63 16.3438L55.9375 27.6437C54.1101 30.5675 50.9054 32.3438 47.4575 32.3438H10C4.47715 32.3438 0 27.8666 0 22.3438V10.3438Z" fill="#4DD092"/>
<path d="M41.0831 22.3436V12.5254H43.723V14.2385H43.8253C44.0043 13.6291 44.3047 13.1689 44.7266 12.8578C45.1485 12.5425 45.6343 12.3848 46.184 12.3848C46.3203 12.3848 46.4674 12.3933 46.625 12.4104C46.7827 12.4274 46.9212 12.4509 47.0405 12.4807V14.8969C46.9127 14.8585 46.7358 14.8244 46.51 14.7946C46.2841 14.7648 46.0774 14.7499 45.8899 14.7499C45.4894 14.7499 45.1314 14.8372 44.8161 15.0119C44.505 15.1824 44.2578 15.421 44.0746 15.7278C43.8956 16.0347 43.8061 16.3883 43.8061 16.7889V22.3436H41.0831Z" fill="#21201C"/>
<path d="M34.2414 22.5288C33.615 22.5288 33.0568 22.4202 32.5667 22.2029C32.0767 21.9813 31.6889 21.6553 31.4034 21.2249C31.1221 20.7902 30.9815 20.249 30.9815 19.6013C30.9815 19.0558 31.0816 18.5977 31.2819 18.227C31.4822 17.8563 31.7549 17.558 32.1001 17.3321C32.4453 17.1063 32.8373 16.9358 33.2763 16.8208C33.7194 16.7057 34.1839 16.6247 34.6697 16.5779C35.2407 16.5182 35.701 16.4628 36.0504 16.4117C36.3998 16.3563 36.6534 16.2753 36.8111 16.1688C36.9687 16.0622 37.0476 15.9046 37.0476 15.6958V15.6574C37.0476 15.2526 36.9197 14.9394 36.664 14.7178C36.4126 14.4962 36.0547 14.3854 35.5902 14.3854C35.1001 14.3854 34.7102 14.494 34.4204 14.7114C34.1307 14.9244 33.9389 15.1929 33.8451 15.5168L31.3267 15.3122C31.4545 14.7156 31.7059 14.2 32.0809 13.7654C32.4559 13.3264 32.9396 12.9898 33.5319 12.7554C34.1285 12.5168 34.8189 12.3975 35.603 12.3975C36.1484 12.3975 36.6704 12.4614 37.169 12.5892C37.6718 12.7171 38.1172 12.9152 38.5049 13.1837C38.897 13.4521 39.2059 13.7973 39.4318 14.2192C39.6576 14.6368 39.7706 15.1375 39.7706 15.7213V22.3435H37.1882V20.982H37.1115C36.9538 21.2888 36.7429 21.5594 36.4787 21.7938C36.2145 22.0239 35.897 22.205 35.5263 22.3371C35.1555 22.4649 34.7272 22.5288 34.2414 22.5288ZM35.0213 20.6496C35.4218 20.6496 35.7755 20.5708 36.0824 20.4131C36.3892 20.2511 36.6299 20.0338 36.8047 19.7611C36.9794 19.4884 37.0667 19.1794 37.0667 18.8342V17.7923C36.9815 17.8477 36.8643 17.8989 36.7152 17.9458C36.5703 17.9884 36.4062 18.0288 36.223 18.0672C36.0397 18.1013 35.8565 18.1333 35.6733 18.1631C35.49 18.1886 35.3238 18.2121 35.1747 18.2334C34.8551 18.2803 34.576 18.3548 34.3373 18.4571C34.0987 18.5594 33.9133 18.6979 33.7812 18.8726C33.6491 19.0431 33.5831 19.2561 33.5831 19.5118C33.5831 19.8825 33.7173 20.1659 33.9858 20.3619C34.2585 20.5537 34.6037 20.6496 35.0213 20.6496Z" fill="#21201C"/>
<path d="M25.9583 22.5352C24.9484 22.5352 24.0791 22.3307 23.3504 21.9216C22.6259 21.5083 22.0677 20.9244 21.6757 20.1702C21.2836 19.4117 21.0876 18.5146 21.0876 17.4791C21.0876 16.4692 21.2836 15.5828 21.6757 14.82C22.0677 14.0573 22.6195 13.4628 23.3312 13.0367C24.0471 12.6105 24.8866 12.3975 25.8497 12.3975C26.4974 12.3975 27.1004 12.5019 27.6586 12.7107C28.2211 12.9152 28.7112 13.2242 29.1288 13.6375C29.5507 14.0509 29.8788 14.5708 30.1132 15.1972C30.3475 15.8193 30.4647 16.548 30.4647 17.3833V18.1311H22.1742V16.4436H27.9015C27.9015 16.0516 27.8163 15.7043 27.6458 15.4017C27.4754 15.0992 27.2389 14.8627 26.9363 14.6922C26.638 14.5175 26.2907 14.4301 25.8944 14.4301C25.4811 14.4301 25.1146 14.526 24.795 14.7178C24.4796 14.9053 24.2325 15.1588 24.0535 15.4784C23.8745 15.7938 23.7829 16.1453 23.7786 16.5331V18.1375C23.7786 18.6233 23.8681 19.0431 24.0471 19.3967C24.2303 19.7504 24.4882 20.0232 24.8205 20.2149C25.1529 20.4067 25.5471 20.5026 26.0031 20.5026C26.3056 20.5026 26.5826 20.46 26.834 20.3747C27.0855 20.2895 27.3007 20.1617 27.4796 19.9912C27.6586 19.8208 27.795 19.6119 27.8887 19.3648L30.4072 19.531C30.2793 20.1361 30.0173 20.6645 29.621 21.1162C29.2289 21.5636 28.7218 21.9131 28.0997 22.1645C27.4818 22.4117 26.768 22.5352 25.9583 22.5352Z" fill="#21201C"/>
<path d="M13.8097 16.6673V22.3435H11.0866V12.5253H13.6818V14.2575H13.7969C14.0142 13.6865 14.3785 13.2348 14.8899 12.9024C15.4013 12.5658 16.0213 12.3975 16.75 12.3975C17.4318 12.3975 18.0263 12.5466 18.5334 12.8449C19.0405 13.1432 19.4347 13.5693 19.7159 14.1233C19.9972 14.673 20.1378 15.3293 20.1378 16.0921V22.3435H17.4148V16.5779C17.419 15.977 17.2656 15.5083 16.9545 15.1716C16.6435 14.8307 16.2152 14.6602 15.6697 14.6602C15.3033 14.6602 14.9794 14.7391 14.6981 14.8967C14.4212 15.0544 14.2038 15.2845 14.0462 15.5871C13.8927 15.8854 13.8139 16.2455 13.8097 16.6673Z" fill="#21201C"/>
</g>
<defs>
<clipPath id="clip0_1355_9100">
<rect width="125" height="32" fill="white" transform="translate(0 0.34375)"/>
</clipPath>
</defs>
</svg>
