<svg width="37" height="37" viewBox="0 0 37 37" fill="none" xmlns="http://www.w3.org/2000/svg">
<path d="M27.5426 4.87623L21.2749 14.1762C20.8463 14.8189 21.6821 15.5689 22.2821 15.0439L27.7463 9.68691C27.9071 9.54761 28.1426 9.64404 28.1426 9.87977V26.6476C28.1426 26.8726 27.8426 26.9688 27.7141 26.8081L9.7571 4.47981C9.46392 4.11896 9.09275 3.82929 8.67147 3.63257C8.25023 3.43584 7.78984 3.33722 7.32497 3.34409C5.39641 3.34409 3.5 4.31909 3.5 6.54764V30.1296C3.50405 30.8242 3.73388 31.4991 4.15482 32.0518C4.57577 32.6046 5.16501 33.0055 5.83373 33.1942C6.50243 33.3828 7.21435 33.349 7.86212 33.0975C8.50988 32.8462 9.0584 32.3913 9.42495 31.801L15.6821 22.5012C16.1107 21.8581 15.2857 21.1081 14.6856 21.6331L9.25352 27.0976C9.09279 27.2368 8.8571 27.1404 8.8571 26.9046V10.1798C8.8571 9.94404 9.1571 9.85833 9.28568 10.019L27.2105 32.208C27.8105 32.9475 28.7105 33.3438 29.6425 33.3438C31.582 33.3438 33.4997 32.3796 33.4997 30.1404V6.55836C33.4988 5.858 33.269 5.17713 32.8457 4.61928C32.4223 4.06146 31.828 3.6572 31.1537 3.46799C30.4795 3.27879 29.7617 3.31502 29.1101 3.57114C28.458 3.82728 27.9079 4.28931 27.5426 4.88696V4.87623Z" fill="black"/>
</svg>
