<svg xmlns="http://www.w3.org/2000/svg" fill="none" viewBox="0 0 64 64" id="Usdc--Streamline-Cryptocurrency" height="64" width="64">
  <desc>
    Usdc Streamline Icon: https://streamlinehq.com
  </desc>
  <path fill="#3e73c4" d="M32 64c17.6732 0 32 -14.3268 32 -32 0 -17.67312 -14.3268 -32 -32 -32C14.32688 0 0 14.32688 0 32c0 17.6732 14.32688 32 32 32Z" stroke-width="2"></path>
  <path fill="#ffffff" d="M40.0442 36.248c0 -4.248 -2.56 -5.704 -7.68 -6.312 -3.656 -0.486 -4.386 -1.456 -4.386 -3.156 0 -1.7 1.22 -2.792 3.656 -2.792 2.194 0 3.414 0.728 4.022 2.55 0.0632 0.1762 0.179 0.3288 0.3318 0.437 0.1526 0.1084 0.3348 0.1674 0.5222 0.169h1.95c0.1126 0.003 0.2246 -0.0168 0.3294 -0.0584 0.1046 -0.0416 0.1998 -0.1042 0.2796 -0.1836 0.0798 -0.0794 0.1428 -0.1744 0.1848 -0.2788 0.0422 -0.1046 0.0626 -0.2166 0.0602 -0.3292v-0.12c-0.2384 -1.3182 -0.9054 -2.5208 -1.8974 -3.421 -0.992 -0.9002 -2.2536 -1.4474 -3.5886 -1.557V18.28402c0 -0.486 -0.366 -0.85 -0.974 -0.972h-1.83c-0.486 0 -0.852 0.364 -0.974 0.972V21.076c-3.658 0.484 -5.972 2.912 -5.972 5.948 0 4.004 2.436 5.582 7.556 6.19 3.414 0.606 4.51 1.336 4.51 3.278 0 1.94 -1.706 3.276 -4.022 3.276 -3.17 0 -4.266 -1.334 -4.632 -3.156 -0.12 -0.484 -0.488 -0.728 -0.854 -0.728h-2.072c-0.1126 -0.0028 -0.2244 0.0174 -0.3288 0.0592 -0.1046 0.0416 -0.1994 0.1042 -0.2792 0.1836 -0.0796 0.0794 -0.1422 0.1742 -0.1842 0.2786 -0.042 0.1044 -0.0624 0.2162 -0.0598 0.3286v0.12c0.486 3.036 2.438 5.22 6.46 5.828v2.914c0 0.484 0.366 0.85 0.974 0.97h1.83c0.486 0 0.852 -0.364 0.974 -0.97V42.68c3.658 -0.606 6.094 -3.156 6.094 -6.434v0.002Z" stroke-width="2"></path>
  <path fill="#ffffff" d="M25.784 48.994c-9.50792 -3.4 -14.38392 -13.96 -10.84792 -23.306 1.828 -5.1 5.84992 -8.982 10.84792 -10.804 0.488 -0.242 0.73 -0.606 0.73 -1.214v-1.7c0 -0.484 -0.242 -0.848 -0.73 -0.97 -0.122 0 -0.366 0 -0.488 0.12 -2.743 0.85664 -5.2896 2.24746 -7.49308 4.09234 -2.20342 1.8449 -4.02012 4.10742 -5.34554 6.65726 -1.32542 2.55 -2.13336 5.3368 -2.37728 8.2002 -0.24392 2.8634 0.08098 5.7468 0.95598 8.4842 2.192 6.8 7.434 12.02 14.25992 14.204 0.488 0.242 0.976 0 1.096 -0.486 0.122 -0.12 0.122 -0.244 0.122 -0.486v-1.7c0 -0.364 -0.364 -0.848 -0.73 -1.092Zm12.92 -37.872c-0.488 -0.244 -0.976 0 -1.096 0.484 -0.122 0.122 -0.122 0.244 -0.122 0.486v1.7c0 0.486 0.364 0.97 0.73 1.214 9.508 3.4 14.384 13.96 10.848 23.306 -1.828 5.1 -5.85 8.982 -10.848 10.804 -0.488 0.242 -0.73 0.606 -0.73 1.214v1.7c0 0.484 0.242 0.848 0.73 0.97 0.122 0 0.366 0 0.488 -0.12 2.7432 -0.8566 5.2898 -2.2474 7.4932 -4.0924 2.2034 -1.8448 4.0202 -4.1074 5.3456 -6.6572 1.3254 -2.55 2.1334 -5.3368 2.3772 -8.2002 0.244 -2.8634 -0.081 -5.7468 -0.956 -8.4842 -2.192 -6.92 -7.556 -12.14 -14.26 -14.324Z" stroke-width="2"></path>
</svg>