<svg width="32" height="32" viewBox="0 0 32 32" fill="none" xmlns="http://www.w3.org/2000/svg">
<path d="M17.9854 18.0285L16.689 21.5632C16.6487 21.6631 16.6487 21.7745 16.689 21.8743L18.9118 27.962L21.4977 26.4807L18.4002 18.0285C18.3838 17.9868 18.3553 17.9512 18.3182 17.926C18.2813 17.9009 18.2375 17.8875 18.1927 17.8875C18.1479 17.8875 18.1042 17.9009 18.0673 17.926C18.0303 17.9512 18.0018 17.9868 17.9854 18.0285ZM20.5781 12.0739C20.5623 12.0316 20.5339 11.9951 20.497 11.9693C20.4598 11.9435 20.4158 11.9297 20.3706 11.9297C20.3255 11.9297 20.2814 11.9435 20.2443 11.9693C20.2073 11.9951 20.179 12.0316 20.1633 12.0739L18.8669 15.6069C18.8266 15.7068 18.8266 15.8183 18.8669 15.918L22.5191 25.8879L25.0981 24.4065L20.5781 12.0653V12.0739Z" fill="#12AAFF"/>
<path d="M16.0005 4.15496C16.0663 4.15496 16.128 4.17224 16.1855 4.20681L26.1864 10.0214C26.2431 10.0533 26.2901 10.0997 26.3227 10.156C26.3551 10.2122 26.3721 10.2762 26.3713 10.3412V21.6522C26.3717 21.7169 26.3548 21.7805 26.3221 21.8365C26.2896 21.8923 26.2428 21.9386 26.1864 21.9703L16.1855 27.8073C16.1289 27.8387 16.0653 27.8554 16.0005 27.8554C15.9359 27.8554 15.8721 27.8387 15.8156 27.8073L5.81468 21.9806C5.75778 21.9487 5.7106 21.9018 5.67805 21.8453C5.64548 21.7887 5.6288 21.7245 5.62973 21.6591V10.3412C5.62973 10.2063 5.70406 10.0888 5.81468 10.0214L15.8156 4.20681C15.8704 4.16996 15.9345 4.14959 16.0005 4.14805V4.15496ZM16.0005 2.66675C15.6445 2.66919 15.2952 2.76325 14.986 2.93984L5.16305 8.59195C4.85528 8.76883 4.59949 9.02359 4.4214 9.33063C4.24329 9.63769 4.14916 9.9862 4.14844 10.3412V21.6522C4.14844 22.3713 4.53216 23.0454 5.16305 23.4083L14.986 29.0605C15.2941 29.2391 15.6441 29.3334 16.0005 29.3334C16.3569 29.3334 16.7069 29.2391 17.0152 29.0605L26.838 23.4083C27.148 23.2322 27.4055 22.9767 27.5837 22.6681C27.7621 22.3594 27.8549 22.0089 27.8527 21.6522V10.3412C27.8527 9.62212 27.4672 8.94802 26.838 8.59195L17.0152 2.93984C16.706 2.76325 16.3567 2.66919 16.0005 2.66675Z" fill="#9DCCED"/>
<path d="M9.50391 25.904L10.4079 23.4375L12.2228 24.9414L10.5272 26.497L9.50391 25.904Z" fill="#213147"/>
<path d="M15.1784 9.33203H12.6825C12.5907 9.33406 12.5018 9.36414 12.4276 9.4182C12.3534 9.47228 12.2976 9.54776 12.2676 9.63452L6.93359 24.3991L9.50382 25.9029L15.3859 9.64316C15.3984 9.60842 15.4028 9.57114 15.3981 9.53444C15.3935 9.49772 15.38 9.46268 15.3591 9.43222C15.3381 9.40176 15.3101 9.37676 15.2775 9.35932C15.2448 9.34191 15.2085 9.33254 15.1715 9.33203H15.1784ZM19.5341 9.33203H17.0452C16.9543 9.33354 16.8659 9.36259 16.7917 9.41536C16.7177 9.46814 16.6615 9.54215 16.6303 9.6276L10.5271 26.4732L13.1042 27.9771L19.7416 9.63624C19.7611 9.58516 19.7613 9.52875 19.7423 9.47752C19.7231 9.42628 19.6861 9.38379 19.6379 9.35796C19.6059 9.3411 19.5703 9.3322 19.5341 9.33203Z" fill="white"/>
</svg>
