<svg width="24" height="23" viewBox="0 0 24 23" fill="none" xmlns="http://www.w3.org/2000/svg">
<path d="M0.500015 11.5C0.500015 5.14872 5.64874 0 12 0C18.3513 0 23.5 5.14872 23.5 11.5C23.5 17.8513 18.3513 23 12 23C5.64874 23 0.500015 17.8513 0.500015 11.5Z" fill="white"/>
<path d="M12.0176 4.59961L11.9251 4.914V14.0368L12.0176 14.1291L16.2523 11.626L12.0176 4.59961Z" fill="#343434"/>
<path d="M12.0177 4.59961L7.78296 11.626L12.0177 14.1292V9.70124V4.59961Z" fill="#8C8C8C"/>
<path d="M12.0175 14.9316L11.9654 14.9951V18.2448L12.0175 18.3971L16.2547 12.4297L12.0175 14.9316Z" fill="#3C3C3B"/>
<path d="M12.0177 18.3971V14.9316L7.78296 12.4297L12.0177 18.3971Z" fill="#8C8C8C"/>
<path d="M12.0178 14.131L16.2524 11.6279L12.0178 9.70312V14.131Z" fill="#141414"/>
<path d="M7.78296 11.6279L12.0176 14.131V9.70312L7.78296 11.6279Z" fill="#393939"/>
</svg>
