<svg width="18" height="19" viewBox="0 0 18 19" fill="none" xmlns="http://www.w3.org/2000/svg">
<path d="M13.5213 2.76624L10.3874 7.41621C10.1731 7.73758 10.591 8.11258 10.891 7.85008L13.6231 5.17158C13.7035 5.10193 13.8213 5.15014 13.8213 5.26801V13.6519C13.8213 13.7644 13.6713 13.8125 13.607 13.7322L4.62855 2.56803C4.48196 2.3876 4.29637 2.24277 4.08574 2.14441C3.87511 2.04605 3.64492 1.99673 3.41248 2.00017C2.4482 2.00017 1.5 2.48767 1.5 3.60194V15.3929C1.50202 15.7402 1.61694 16.0776 1.82741 16.354C2.03788 16.6304 2.33251 16.8309 2.66686 16.9252C3.00121 17.0195 3.35717 17.0026 3.68106 16.8768C4.00494 16.7512 4.2792 16.5237 4.46248 16.2286L7.59105 11.5787C7.80532 11.2572 7.39282 10.8822 7.09282 11.1447L4.37676 13.8769C4.2964 13.9465 4.17855 13.8983 4.17855 13.7804V5.418C4.17855 5.30014 4.32855 5.25729 4.39284 5.33764L13.3552 16.4321C13.6552 16.8018 14.1052 17 14.5712 17C15.541 17 16.4998 16.5179 16.4998 15.3983V3.6073C16.4994 3.25712 16.3845 2.91669 16.1728 2.63776C15.9611 2.35886 15.664 2.15672 15.3268 2.06212C14.9897 1.96752 14.6308 1.98563 14.305 2.1137C13.979 2.24177 13.7039 2.47278 13.5213 2.7716V2.76624Z" fill="#00EC97"/>
</svg>
