<svg width="45" height="45" viewBox="0 0 45 45" fill="none" xmlns="http://www.w3.org/2000/svg">
<path d="M0 22.5C0 10.0736 10.0736 0 22.5 0C34.9264 0 45 10.0736 45 22.5C45 34.9264 34.9264 45 22.5 45C10.0736 45 0 34.9264 0 22.5Z" fill="black"/>
<path d="M30.0356 11.2771L24.8125 19.027C24.4554 19.5626 25.1519 20.1876 25.6519 19.7501L30.2054 15.286C30.3394 15.1699 30.5356 15.2502 30.5356 15.4467V29.4199C30.5356 29.6074 30.2856 29.6875 30.1785 29.5536L15.2144 10.9467C14.9701 10.646 14.6607 10.4046 14.3097 10.2407C13.9586 10.0767 13.575 9.99455 13.1876 10.0003C11.5805 10.0003 10.0001 10.8128 10.0001 12.6699V32.3215C10.0035 32.9004 10.195 33.4627 10.5458 33.9234C10.8966 34.384 11.3876 34.7181 11.9449 34.8754C12.5021 35.0325 13.0954 35.0044 13.6352 34.7947C14.175 34.5854 14.6321 34.2062 14.9376 33.7144L20.1519 25.9645C20.509 25.4286 19.8215 24.8036 19.3215 25.2411L14.7947 29.7949C14.6608 29.9109 14.4644 29.8305 14.4644 29.634V15.6967C14.4644 15.5002 14.7144 15.4288 14.8215 15.5627L29.7589 34.0535C30.2589 34.6697 31.0089 35 31.7855 35C33.4017 35 34.9998 34.1965 34.9998 32.3305V12.6788C34.9991 12.0952 34.8076 11.5278 34.4548 11.0629C34.102 10.5981 33.6067 10.2612 33.0449 10.1035C32.483 9.94587 31.8849 9.97605 31.3419 10.1895C30.7985 10.4029 30.34 10.788 30.0356 11.286V11.2771Z" fill="#00EC97"/>
</svg>
