<svg width="33" height="32" viewBox="0 0 33 32" fill="none" xmlns="http://www.w3.org/2000/svg">
<path d="M0.5 16C0.5 7.16344 7.66344 0 16.5 0C25.3366 0 32.5 7.16344 32.5 16C32.5 24.8366 25.3366 32 16.5 32C7.66344 32 0.5 24.8366 0.5 16Z" fill="black"/>
<path d="M21.3493 19.5744L26.0931 16.8684C26.3446 16.7246 26.5 16.458 26.5 16.1719V10.7598C26.5 10.4737 26.3446 10.2071 26.0931 10.0634L21.3493 7.35729C21.0978 7.21354 20.7855 7.21494 20.5355 7.35729L15.7915 10.0634C15.54 10.2071 15.3846 10.4737 15.3846 10.7598V20.4313L12.0577 22.3279L8.7307 20.4313V16.6366L12.0577 14.74L14.2516 15.9919V13.4463L12.4645 12.4261C12.3416 12.3563 12.2004 12.3187 12.0577 12.3187C11.915 12.3187 11.7737 12.3563 11.6508 12.4261L6.90686 15.1323C6.6554 15.276 6.5 15.5425 6.5 15.8286V21.2408C6.5 21.5269 6.6554 21.7934 6.90686 21.9371L11.6508 24.6433C11.9023 24.7856 12.2131 24.7856 12.4645 24.6433L17.2085 21.9371C17.46 21.7934 17.6154 21.5269 17.6154 21.2408V11.5692L17.6746 11.5357L20.9409 9.6726L24.2679 11.5692V15.3639L20.9409 17.2605L18.7497 16.0115V18.557L20.534 19.5744C20.7855 19.7167 21.0977 19.7167 21.3477 19.5744H21.3493Z" fill="url(#paint0_linear_1296_30054)"/>
<defs>
<linearGradient id="paint0_linear_1296_30054" x1="6.43501" y1="21.7711" x2="25.5209" y2="10.5563" gradientUnits="userSpaceOnUse">
<stop stop-color="#A726C1"/>
<stop offset="0.88" stop-color="#803BDF"/>
<stop offset="1" stop-color="#7B3FE4"/>
</linearGradient>
</defs>
</svg>
