<svg width="45" height="45" viewBox="0 0 45 45" fill="none" xmlns="http://www.w3.org/2000/svg">
<path d="M0 22.5C0 10.0736 10.0736 0 22.5 0C34.9264 0 45 10.0736 45 22.5C45 34.9264 34.9264 45 22.5 45C10.0736 45 0 34.9264 0 22.5Z" fill="#0A0A0A"/>
<path d="M32.0001 16.4294C31.8334 16.5794 31.6169 16.671 31.3918 16.671H10.0257C9.26738 16.671 8.88408 15.8044 9.40906 15.2961L12.9173 11.9128C13.084 11.7545 13.3006 11.6628 13.5256 11.6628H34.975C35.7417 11.6628 36.1168 12.5378 35.5834 13.0461L32.0001 16.4294Z" fill="url(#paint0_linear_1296_27754)"/>
<path d="M32.0001 33.1038C31.8334 33.2537 31.6169 33.3372 31.3918 33.3372H10.0257C9.26738 33.3372 8.88408 32.4786 9.40906 31.9704L12.9173 28.5788C13.084 28.4205 13.3006 28.3372 13.5256 28.3372H34.975C35.7417 28.3372 36.1168 29.2037 35.5834 29.7122L32.0001 33.1038Z" fill="url(#paint1_linear_1296_27754)"/>
<path d="M32.0001 20.2375C31.8334 20.0876 31.6169 20.0042 31.3918 20.0042H10.0257C9.26738 20.0042 8.88408 20.8624 9.40906 21.3708L12.9173 24.7625C13.084 24.9124 13.3006 25.004 13.5256 25.004H34.975C35.7417 25.004 36.1168 24.1373 35.5834 23.6291L32.0001 20.2375Z" fill="url(#paint2_linear_1296_27754)"/>
<defs>
<linearGradient id="paint0_linear_1296_27754" x1="9.16741" y1="28.9013" x2="36.4725" y2="27.8188" gradientUnits="userSpaceOnUse">
<stop stop-color="#599DB0"/>
<stop offset="1" stop-color="#47F8C3"/>
</linearGradient>
<linearGradient id="paint1_linear_1296_27754" x1="9.16741" y1="29.8692" x2="36.3114" y2="28.9697" gradientUnits="userSpaceOnUse">
<stop stop-color="#C44FE2"/>
<stop offset="1" stop-color="#73B0D0"/>
</linearGradient>
<linearGradient id="paint2_linear_1296_27754" x1="10.7007" y1="22.5043" x2="34.8" y2="22.5043" gradientUnits="userSpaceOnUse">
<stop stop-color="#778CBF"/>
<stop offset="1" stop-color="#5DCDC9"/>
</linearGradient>
</defs>
</svg>
