<svg width="14" height="12" viewBox="0 0 14 12" fill="none" xmlns="http://www.w3.org/2000/svg">
<path d="M11.7501 2.96514C11.6671 3.04152 11.5587 3.08446 11.4459 3.08569H0.762678C0.383532 3.08569 0.192012 2.6521 0.454498 2.39837L2.20927 0.706796C2.29082 0.628056 2.39923 0.583229 2.51258 0.581383H13.2376C13.6206 0.581383 13.8083 1.01886 13.5419 1.27357L11.7501 2.96514ZM11.7501 11.3025C11.6665 11.3774 11.5581 11.4189 11.4459 11.4191H0.762678C0.383532 11.4191 0.192012 10.9894 0.454498 10.7357L2.20927 9.03927C2.29103 8.96147 2.39971 8.9182 2.51258 8.91867H13.2376C13.6206 8.91867 13.8083 9.35227 13.5419 9.606L11.7501 11.3025ZM11.7501 4.86867C11.6665 4.79367 11.5581 4.7522 11.4459 4.752H0.762678C0.383532 4.752 0.192012 5.18167 0.454498 5.4354L2.20927 7.13187C2.29209 7.208 2.40008 7.25094 2.51258 7.2524H13.2376C13.6206 7.2524 13.8083 6.8188 13.5419 6.56507L11.7501 4.86867Z" fill="#020617"/>
</svg>
